<?xml version="1.0" encoding="UTF-8" standalone="no"?>
<!DOCTYPE svg PUBLIC "-//W3C//DTD SVG 1.1//EN" "http://www.w3.org/Graphics/SVG/1.1/DTD/svg11.dtd">
<svg width="100%" height="100%" viewBox="0 0 120 120" version="1.1" xmlns="http://www.w3.org/2000/svg" xmlns:xlink="http://www.w3.org/1999/xlink" xml:space="preserve" xmlns:serif="http://www.serif.com/" style="fill-rule:evenodd;clip-rule:evenodd;stroke-linecap:round;stroke-miterlimit:2;">
    <g transform="matrix(1,0,0,1,-0.414901,0)">
        <g transform="matrix(0.739208,0,0,0.769041,-4.59179,10.6593)">
            <g transform="matrix(1,0,0,1,-16.683,0)">
                <path d="M96.001,22.186C97.651,22.674 98.825,23.658 99.326,25.335C100.043,27.732 98.813,29.556 96.308,29.801C93.061,30.118 89.898,30.778 86.844,31.939C81.77,33.867 76.847,37.904 74.597,42.046C75.485,42.856 76.46,43.608 77.255,44.514C78.049,45.421 78.661,46.485 79.36,47.474C79.562,47.759 79.762,48.056 80.015,48.296C82.201,50.379 84.219,52.593 85.724,55.227C86.833,57.165 87.622,59.227 87.963,61.419C88.091,62.238 87.968,63.148 87.743,63.958C87.399,65.199 86.482,65.965 85.189,66.206C80.064,67.171 74.941,68.139 69.81,69.068C69.168,69.185 68.486,69.082 67.645,69.082C67.75,69.474 67.792,69.829 67.937,70.135C71.294,77.307 74.654,84.478 78.034,91.641C79.593,94.943 78.167,98.211 74.723,99.151C72.848,99.664 71.009,99.055 70.101,97.362C68.672,94.703 67.354,91.982 66.065,89.252C63.944,84.751 61.885,80.222 59.799,75.708C59.713,75.523 59.628,75.34 59.486,75.037C59.329,75.37 59.214,75.607 59.104,75.847C56.027,82.623 53.373,89.563 50.965,96.598C50.531,97.867 50.003,99.086 48.694,99.711C46.821,100.602 45.091,100.171 43.524,98.988C41.962,97.807 41.099,96.189 41.61,94.267C42.245,91.871 43.107,89.531 43.965,87.2C46.77,79.577 49.888,72.088 53.583,64.834C55.285,61.491 56.61,57.962 58.235,54.578C61.297,48.203 64.853,42.105 68.996,36.352C74.022,29.371 80.822,25.044 89.204,23.118C90.745,22.763 92.327,22.587 93.888,22.322C94.033,22.298 94.169,22.232 94.311,22.186L96.001,22.186ZM71.557,60.713C71.608,60.766 71.66,60.819 71.714,60.872C74.152,60.414 76.591,59.956 79.26,59.457C78.108,57.916 77.072,56.53 75.922,54.993C74.369,57.029 72.963,58.87 71.557,60.713ZM93.058,41.904C93.058,45.416 90.205,48.263 86.687,48.263C83.169,48.263 80.317,45.416 80.317,41.904C80.317,38.392 83.169,35.545 86.687,35.545C90.205,35.545 93.058,38.392 93.058,41.904Z" style="fill:none;fill-rule:nonzero;stroke:white;stroke-width:2.13px;"/>
            </g>
            <g transform="matrix(1,0,0,1,-16.683,0)">
                <path d="M96.001,22.186C97.651,22.674 98.825,23.658 99.326,25.335C100.043,27.732 98.813,29.556 96.308,29.801C93.061,30.118 89.898,30.778 86.844,31.939C81.77,33.867 76.847,37.904 74.597,42.046C75.485,42.856 76.46,43.608 77.255,44.514C78.049,45.421 78.661,46.485 79.36,47.474C79.562,47.759 79.762,48.056 80.015,48.296C82.201,50.379 84.219,52.593 85.724,55.227C86.833,57.165 87.622,59.227 87.963,61.419C88.091,62.238 87.968,63.148 87.743,63.958C87.399,65.199 86.482,65.965 85.189,66.206C80.064,67.171 74.941,68.139 69.81,69.068C69.168,69.185 68.486,69.082 67.645,69.082C67.75,69.474 67.792,69.829 67.937,70.135C71.294,77.307 74.654,84.478 78.034,91.641C79.593,94.943 78.167,98.211 74.723,99.151C72.848,99.664 71.009,99.055 70.101,97.362C68.672,94.703 67.354,91.982 66.065,89.252C63.944,84.751 61.885,80.222 59.799,75.708C59.713,75.523 59.628,75.34 59.486,75.037C59.329,75.37 59.214,75.607 59.104,75.847C56.027,82.623 53.373,89.563 50.965,96.598C50.531,97.867 50.003,99.086 48.694,99.711C46.821,100.602 45.091,100.171 43.524,98.988C41.962,97.807 41.099,96.189 41.61,94.267C42.245,91.871 43.107,89.531 43.965,87.2C46.77,79.577 49.888,72.088 53.583,64.834C55.285,61.491 56.61,57.962 58.235,54.578C61.297,48.203 64.853,42.105 68.996,36.352C74.022,29.371 80.822,25.044 89.204,23.118C90.745,22.763 92.327,22.587 93.888,22.322C94.033,22.298 94.169,22.232 94.311,22.186L96.001,22.186ZM71.557,60.713C71.608,60.766 71.66,60.819 71.714,60.872C74.152,60.414 76.591,59.956 79.26,59.457C78.108,57.916 77.072,56.53 75.922,54.993C74.369,57.029 72.963,58.87 71.557,60.713ZM93.058,41.904C93.058,45.416 90.205,48.263 86.687,48.263C83.169,48.263 80.317,45.416 80.317,41.904C80.317,38.392 83.169,35.545 86.687,35.545C90.205,35.545 93.058,38.392 93.058,41.904Z" style="fill:rgb(255,164,0);fill-rule:nonzero;stroke:rgb(255,164,0);stroke-width:1.06px;stroke-linecap:butt;stroke-linejoin:round;"/>
            </g>
        </g>
        <g transform="matrix(0.739208,0,0,0.769041,45.8642,10.6593)">
            <g transform="matrix(1,0,0,1,-16.683,0)">
                <path d="M96.001,22.186C97.651,22.674 98.825,23.658 99.326,25.335C100.043,27.732 98.813,29.556 96.308,29.801C93.061,30.118 89.898,30.778 86.844,31.939C81.77,33.867 76.847,37.904 74.597,42.046C75.485,42.856 76.46,43.608 77.255,44.514C78.049,45.421 78.661,46.485 79.36,47.474C79.562,47.759 79.762,48.056 80.015,48.296C82.201,50.379 84.219,52.593 85.724,55.227C86.833,57.165 87.622,59.227 87.963,61.419C88.091,62.238 87.968,63.148 87.743,63.958C87.399,65.199 86.482,65.965 85.189,66.206C80.064,67.171 74.941,68.139 69.81,69.068C69.168,69.185 68.486,69.082 67.645,69.082C67.75,69.474 67.792,69.829 67.937,70.135C71.294,77.307 74.654,84.478 78.034,91.641C79.593,94.943 78.167,98.211 74.723,99.151C72.848,99.664 71.009,99.055 70.101,97.362C68.672,94.703 67.354,91.982 66.065,89.252C63.944,84.751 61.885,80.222 59.799,75.708C59.713,75.523 59.628,75.34 59.486,75.037C59.329,75.37 59.214,75.607 59.104,75.847C56.027,82.623 53.373,89.563 50.965,96.598C50.531,97.867 50.003,99.086 48.694,99.711C46.821,100.602 45.091,100.171 43.524,98.988C41.962,97.807 41.099,96.189 41.61,94.267C42.245,91.871 43.107,89.531 43.965,87.2C46.77,79.577 49.888,72.088 53.583,64.834C55.285,61.491 56.61,57.962 58.235,54.578C61.297,48.203 64.853,42.105 68.996,36.352C74.022,29.371 80.822,25.044 89.204,23.118C90.745,22.763 92.327,22.587 93.888,22.322C94.033,22.298 94.169,22.232 94.311,22.186L96.001,22.186ZM71.557,60.713C71.608,60.766 71.66,60.819 71.714,60.872C74.152,60.414 76.591,59.956 79.26,59.457C78.108,57.916 77.072,56.53 75.922,54.993C74.369,57.029 72.963,58.87 71.557,60.713ZM93.058,41.904C93.058,45.416 90.205,48.263 86.687,48.263C83.169,48.263 80.317,45.416 80.317,41.904C80.317,38.392 83.169,35.545 86.687,35.545C90.205,35.545 93.058,38.392 93.058,41.904Z" style="fill:none;fill-rule:nonzero;stroke:white;stroke-width:2.13px;"/>
            </g>
            <g transform="matrix(1,0,0,1,-16.683,0)">
                <path d="M96.001,22.186C97.651,22.674 98.825,23.658 99.326,25.335C100.043,27.732 98.813,29.556 96.308,29.801C93.061,30.118 89.898,30.778 86.844,31.939C81.77,33.867 76.847,37.904 74.597,42.046C75.485,42.856 76.46,43.608 77.255,44.514C78.049,45.421 78.661,46.485 79.36,47.474C79.562,47.759 79.762,48.056 80.015,48.296C82.201,50.379 84.219,52.593 85.724,55.227C86.833,57.165 87.622,59.227 87.963,61.419C88.091,62.238 87.968,63.148 87.743,63.958C87.399,65.199 86.482,65.965 85.189,66.206C80.064,67.171 74.941,68.139 69.81,69.068C69.168,69.185 68.486,69.082 67.645,69.082C67.75,69.474 67.792,69.829 67.937,70.135C71.294,77.307 74.654,84.478 78.034,91.641C79.593,94.943 78.167,98.211 74.723,99.151C72.848,99.664 71.009,99.055 70.101,97.362C68.672,94.703 67.354,91.982 66.065,89.252C63.944,84.751 61.885,80.222 59.799,75.708C59.713,75.523 59.628,75.34 59.486,75.037C59.329,75.37 59.214,75.607 59.104,75.847C56.027,82.623 53.373,89.563 50.965,96.598C50.531,97.867 50.003,99.086 48.694,99.711C46.821,100.602 45.091,100.171 43.524,98.988C41.962,97.807 41.099,96.189 41.61,94.267C42.245,91.871 43.107,89.531 43.965,87.2C46.77,79.577 49.888,72.088 53.583,64.834C55.285,61.491 56.61,57.962 58.235,54.578C61.297,48.203 64.853,42.105 68.996,36.352C74.022,29.371 80.822,25.044 89.204,23.118C90.745,22.763 92.327,22.587 93.888,22.322C94.033,22.298 94.169,22.232 94.311,22.186L96.001,22.186ZM71.557,60.713C71.608,60.766 71.66,60.819 71.714,60.872C74.152,60.414 76.591,59.956 79.26,59.457C78.108,57.916 77.072,56.53 75.922,54.993C74.369,57.029 72.963,58.87 71.557,60.713ZM93.058,41.904C93.058,45.416 90.205,48.263 86.687,48.263C83.169,48.263 80.317,45.416 80.317,41.904C80.317,38.392 83.169,35.545 86.687,35.545C90.205,35.545 93.058,38.392 93.058,41.904Z" style="fill:rgb(255,164,0);fill-rule:nonzero;stroke:rgb(255,164,0);stroke-width:1.06px;stroke-linecap:butt;stroke-linejoin:round;"/>
            </g>
        </g>
    </g>
    <g transform="matrix(1,0,0,1,4.87503,0.0453486)">
        <g transform="matrix(0.802321,0,0,0.802321,-1.43518,11.8517)">
            <path d="M96.001,22.186C97.651,22.674 98.825,23.658 99.326,25.335C100.043,27.732 98.813,29.556 96.308,29.801C93.061,30.118 89.898,30.778 86.844,31.939C81.77,33.867 76.847,37.904 74.597,42.046C75.485,42.856 76.46,43.608 77.255,44.514C78.049,45.421 78.661,46.485 79.36,47.474C79.562,47.759 79.762,48.056 80.015,48.296C82.201,50.379 84.219,52.593 85.724,55.227C86.833,57.165 87.622,59.227 87.963,61.419C88.091,62.238 87.968,63.148 87.743,63.958C87.399,65.199 86.482,65.965 85.189,66.206C80.064,67.171 74.941,68.139 69.81,69.068C69.168,69.185 68.486,69.082 67.645,69.082C67.75,69.474 67.792,69.829 67.937,70.135C71.294,77.307 74.654,84.478 78.034,91.641C79.593,94.943 78.167,98.211 74.723,99.151C72.848,99.664 71.009,99.055 70.101,97.362C68.672,94.703 67.354,91.982 66.065,89.252C63.944,84.751 61.885,80.222 59.799,75.708C59.713,75.523 59.628,75.34 59.486,75.037C59.329,75.37 59.214,75.607 59.104,75.847C56.027,82.623 53.373,89.563 50.965,96.598C50.531,97.867 50.003,99.086 48.694,99.711C46.821,100.602 45.091,100.171 43.524,98.988C41.962,97.807 41.099,96.189 41.61,94.267C42.245,91.871 43.107,89.531 43.965,87.2C46.77,79.577 49.888,72.088 53.583,64.834C55.285,61.491 56.61,57.962 58.235,54.578C61.297,48.203 64.853,42.105 68.996,36.352C74.022,29.371 80.822,25.044 89.204,23.118C90.745,22.763 92.327,22.587 93.888,22.322C94.033,22.298 94.169,22.232 94.311,22.186L96.001,22.186ZM71.557,60.713C71.608,60.766 71.66,60.819 71.714,60.872C74.152,60.414 76.591,59.956 79.26,59.457C78.108,57.916 77.072,56.53 75.922,54.993C74.369,57.029 72.963,58.87 71.557,60.713ZM93.058,41.904C93.058,45.416 90.205,48.263 86.687,48.263C83.169,48.263 80.317,45.416 80.317,41.904C80.317,38.392 83.169,35.545 86.687,35.545C90.205,35.545 93.058,38.392 93.058,41.904Z" style="fill:none;fill-rule:nonzero;stroke:white;stroke-width:2px;"/>
        </g>
        <g transform="matrix(0.802321,0,0,0.802321,-1.43518,11.8517)">
            <path d="M96.001,22.186C97.651,22.674 98.825,23.658 99.326,25.335C100.043,27.732 98.813,29.556 96.308,29.801C93.061,30.118 89.898,30.778 86.844,31.939C81.77,33.867 76.847,37.904 74.597,42.046C75.485,42.856 76.46,43.608 77.255,44.514C78.049,45.421 78.661,46.485 79.36,47.474C79.562,47.759 79.762,48.056 80.015,48.296C82.201,50.379 84.219,52.593 85.724,55.227C86.833,57.165 87.622,59.227 87.963,61.419C88.091,62.238 87.968,63.148 87.743,63.958C87.399,65.199 86.482,65.965 85.189,66.206C80.064,67.171 74.941,68.139 69.81,69.068C69.168,69.185 68.486,69.082 67.645,69.082C67.75,69.474 67.792,69.829 67.937,70.135C71.294,77.307 74.654,84.478 78.034,91.641C79.593,94.943 78.167,98.211 74.723,99.151C72.848,99.664 71.009,99.055 70.101,97.362C68.672,94.703 67.354,91.982 66.065,89.252C63.944,84.751 61.885,80.222 59.799,75.708C59.713,75.523 59.628,75.34 59.486,75.037C59.329,75.37 59.214,75.607 59.104,75.847C56.027,82.623 53.373,89.563 50.965,96.598C50.531,97.867 50.003,99.086 48.694,99.711C46.821,100.602 45.091,100.171 43.524,98.988C41.962,97.807 41.099,96.189 41.61,94.267C42.245,91.871 43.107,89.531 43.965,87.2C46.77,79.577 49.888,72.088 53.583,64.834C55.285,61.491 56.61,57.962 58.235,54.578C61.297,48.203 64.853,42.105 68.996,36.352C74.022,29.371 80.822,25.044 89.204,23.118C90.745,22.763 92.327,22.587 93.888,22.322C94.033,22.298 94.169,22.232 94.311,22.186L96.001,22.186ZM71.557,60.713C71.608,60.766 71.66,60.819 71.714,60.872C74.152,60.414 76.591,59.956 79.26,59.457C78.108,57.916 77.072,56.53 75.922,54.993C74.369,57.029 72.963,58.87 71.557,60.713ZM93.058,41.904C93.058,45.416 90.205,48.263 86.687,48.263C83.169,48.263 80.317,45.416 80.317,41.904C80.317,38.392 83.169,35.545 86.687,35.545C90.205,35.545 93.058,38.392 93.058,41.904Z" style="fill:rgb(255,164,0);fill-rule:nonzero;stroke:rgb(255,164,0);stroke-width:1px;stroke-linecap:butt;stroke-linejoin:round;"/>
        </g>
    </g>
</svg>
