<svg id-"exercise" viewBox="0 0 120 120" xmlns="http://www.w3.org/2000/svg" xml:space="preserve" style="fill-rule:evenodd;clip-rule:evenodd;stroke-linecap:round;stroke-miterlimit:2"><path d="M96.001 22.186c1.65.488 2.824 1.472 3.325 3.149.717 2.397-.513 4.221-3.018 4.466-3.247.317-6.41.977-9.464 2.138-5.074 1.928-9.997 5.965-12.247 10.107.888.81 1.863 1.562 2.658 2.468.794.907 1.406 1.971 2.105 2.96.202.285.402.582.655.822 2.186 2.083 4.204 4.297 5.709 6.931 1.109 1.938 1.898 4 2.239 6.192.128.819.005 1.729-.22 2.539-.344 1.241-1.261 2.007-2.554 2.248-5.125.965-10.248 1.933-15.379 2.862-.642.117-1.324.014-2.165.014.105.392.147.747.292 1.053a7634.679 7634.679 0 0 0 10.097 21.506c1.559 3.302.133 6.57-3.311 7.51-1.875.513-3.714-.096-4.622-1.789-1.429-2.659-2.747-5.38-4.036-8.11-2.121-4.501-4.18-9.03-6.266-13.544l-.313-.671c-.157.333-.272.57-.382.81-3.077 6.776-5.731 13.716-8.139 20.751-.434 1.269-.962 2.488-2.271 3.113-1.873.891-3.603.46-5.17-.723-1.562-1.181-2.425-2.799-1.914-4.721.635-2.396 1.497-4.736 2.355-7.067 2.805-7.623 5.923-15.112 9.618-22.366 1.702-3.343 3.027-6.872 4.652-10.256 3.062-6.375 6.618-12.473 10.761-18.226 5.026-6.981 11.826-11.308 20.208-13.234 1.541-.355 3.123-.531 4.684-.796.145-.024.281-.09.423-.136h1.69zM71.557 60.713c.051.053.103.106.157.159 2.438-.458 4.877-.916 7.546-1.415l-3.338-4.464-4.365 5.72zm21.501-18.809c0 3.512-2.853 6.359-6.371 6.359-3.518 0-6.37-2.847-6.37-6.359s2.852-6.359 6.37-6.359c3.518 0 6.371 2.847 6.371 6.359z" style="fill:none;fill-rule:nonzero;stroke:#fff;stroke-width:2.13px" transform="matrix(.7392 0 0 .76904 -17.339 10.66)"/><path d="M96.001 22.186c1.65.488 2.824 1.472 3.325 3.149.717 2.397-.513 4.221-3.018 4.466-3.247.317-6.41.977-9.464 2.138-5.074 1.928-9.997 5.965-12.247 10.107.888.81 1.863 1.562 2.658 2.468.794.907 1.406 1.971 2.105 2.96.202.285.402.582.655.822 2.186 2.083 4.204 4.297 5.709 6.931 1.109 1.938 1.898 4 2.239 6.192.128.819.005 1.729-.22 2.539-.344 1.241-1.261 2.007-2.554 2.248-5.125.965-10.248 1.933-15.379 2.862-.642.117-1.324.014-2.165.014.105.392.147.747.292 1.053a7634.679 7634.679 0 0 0 10.097 21.506c1.559 3.302.133 6.57-3.311 7.51-1.875.513-3.714-.096-4.622-1.789-1.429-2.659-2.747-5.38-4.036-8.11-2.121-4.501-4.18-9.03-6.266-13.544l-.313-.671c-.157.333-.272.57-.382.81-3.077 6.776-5.731 13.716-8.139 20.751-.434 1.269-.962 2.488-2.271 3.113-1.873.891-3.603.46-5.17-.723-1.562-1.181-2.425-2.799-1.914-4.721.635-2.396 1.497-4.736 2.355-7.067 2.805-7.623 5.923-15.112 9.618-22.366 1.702-3.343 3.027-6.872 4.652-10.256 3.062-6.375 6.618-12.473 10.761-18.226 5.026-6.981 11.826-11.308 20.208-13.234 1.541-.355 3.123-.531 4.684-.796.145-.024.281-.09.423-.136h1.69zM71.557 60.713c.051.053.103.106.157.159 2.438-.458 4.877-.916 7.546-1.415l-3.338-4.464-4.365 5.72zm21.501-18.809c0 3.512-2.853 6.359-6.371 6.359-3.518 0-6.37-2.847-6.37-6.359s2.852-6.359 6.37-6.359c3.518 0 6.371 2.847 6.371 6.359z" style="fill:#ffa400;fill-rule:nonzero;stroke:#ffa400;stroke-width:1.06px;stroke-linecap:butt;stroke-linejoin:round" transform="matrix(.7392 0 0 .76904 -17.339 10.66)"/><g><path d="M96.001 22.186c1.65.488 2.824 1.472 3.325 3.149.717 2.397-.513 4.221-3.018 4.466-3.247.317-6.41.977-9.464 2.138-5.074 1.928-9.997 5.965-12.247 10.107.888.81 1.863 1.562 2.658 2.468.794.907 1.406 1.971 2.105 2.96.202.285.402.582.655.822 2.186 2.083 4.204 4.297 5.709 6.931 1.109 1.938 1.898 4 2.239 6.192.128.819.005 1.729-.22 2.539-.344 1.241-1.261 2.007-2.554 2.248-5.125.965-10.248 1.933-15.379 2.862-.642.117-1.324.014-2.165.014.105.392.147.747.292 1.053a7634.679 7634.679 0 0 0 10.097 21.506c1.559 3.302.133 6.57-3.311 7.51-1.875.513-3.714-.096-4.622-1.789-1.429-2.659-2.747-5.38-4.036-8.11-2.121-4.501-4.18-9.03-6.266-13.544l-.313-.671c-.157.333-.272.57-.382.81-3.077 6.776-5.731 13.716-8.139 20.751-.434 1.269-.962 2.488-2.271 3.113-1.873.891-3.603.46-5.17-.723-1.562-1.181-2.425-2.799-1.914-4.721.635-2.396 1.497-4.736 2.355-7.067 2.805-7.623 5.923-15.112 9.618-22.366 1.702-3.343 3.027-6.872 4.652-10.256 3.062-6.375 6.618-12.473 10.761-18.226 5.026-6.981 11.826-11.308 20.208-13.234 1.541-.355 3.123-.531 4.684-.796.145-.024.281-.09.423-.136h1.69zM71.557 60.713c.051.053.103.106.157.159 2.438-.458 4.877-.916 7.546-1.415l-3.338-4.464-4.365 5.72zm21.501-18.809c0 3.512-2.853 6.359-6.371 6.359-3.518 0-6.37-2.847-6.37-6.359s2.852-6.359 6.37-6.359c3.518 0 6.371 2.847 6.371 6.359z" style="fill:none;fill-rule:nonzero;stroke:#fff;stroke-width:2.13px" transform="matrix(.7392 0 0 .76904 33.117 10.66)"/><path d="M96.001 22.186c1.65.488 2.824 1.472 3.325 3.149.717 2.397-.513 4.221-3.018 4.466-3.247.317-6.41.977-9.464 2.138-5.074 1.928-9.997 5.965-12.247 10.107.888.81 1.863 1.562 2.658 2.468.794.907 1.406 1.971 2.105 2.96.202.285.402.582.655.822 2.186 2.083 4.204 4.297 5.709 6.931 1.109 1.938 1.898 4 2.239 6.192.128.819.005 1.729-.22 2.539-.344 1.241-1.261 2.007-2.554 2.248-5.125.965-10.248 1.933-15.379 2.862-.642.117-1.324.014-2.165.014.105.392.147.747.292 1.053a7634.679 7634.679 0 0 0 10.097 21.506c1.559 3.302.133 6.57-3.311 7.51-1.875.513-3.714-.096-4.622-1.789-1.429-2.659-2.747-5.38-4.036-8.11-2.121-4.501-4.18-9.03-6.266-13.544l-.313-.671c-.157.333-.272.57-.382.81-3.077 6.776-5.731 13.716-8.139 20.751-.434 1.269-.962 2.488-2.271 3.113-1.873.891-3.603.46-5.17-.723-1.562-1.181-2.425-2.799-1.914-4.721.635-2.396 1.497-4.736 2.355-7.067 2.805-7.623 5.923-15.112 9.618-22.366 1.702-3.343 3.027-6.872 4.652-10.256 3.062-6.375 6.618-12.473 10.761-18.226 5.026-6.981 11.826-11.308 20.208-13.234 1.541-.355 3.123-.531 4.684-.796.145-.024.281-.09.423-.136h1.69zM71.557 60.713c.051.053.103.106.157.159 2.438-.458 4.877-.916 7.546-1.415l-3.338-4.464-4.365 5.72zm21.501-18.809c0 3.512-2.853 6.359-6.371 6.359-3.518 0-6.37-2.847-6.37-6.359s2.852-6.359 6.37-6.359c3.518 0 6.371 2.847 6.371 6.359z" style="fill:#ffa400;fill-rule:nonzero;stroke:#ffa400;stroke-width:1.06px;stroke-linecap:butt;stroke-linejoin:round" transform="matrix(.7392 0 0 .76904 33.117 10.66)"/></g><g><path d="M96.001 22.186c1.65.488 2.824 1.472 3.325 3.149.717 2.397-.513 4.221-3.018 4.466-3.247.317-6.41.977-9.464 2.138-5.074 1.928-9.997 5.965-12.247 10.107.888.81 1.863 1.562 2.658 2.468.794.907 1.406 1.971 2.105 2.96.202.285.402.582.655.822 2.186 2.083 4.204 4.297 5.709 6.931 1.109 1.938 1.898 4 2.239 6.192.128.819.005 1.729-.22 2.539-.344 1.241-1.261 2.007-2.554 2.248-5.125.965-10.248 1.933-15.379 2.862-.642.117-1.324.014-2.165.014.105.392.147.747.292 1.053a7634.679 7634.679 0 0 0 10.097 21.506c1.559 3.302.133 6.57-3.311 7.51-1.875.513-3.714-.096-4.622-1.789-1.429-2.659-2.747-5.38-4.036-8.11-2.121-4.501-4.18-9.03-6.266-13.544l-.313-.671c-.157.333-.272.57-.382.81-3.077 6.776-5.731 13.716-8.139 20.751-.434 1.269-.962 2.488-2.271 3.113-1.873.891-3.603.46-5.17-.723-1.562-1.181-2.425-2.799-1.914-4.721.635-2.396 1.497-4.736 2.355-7.067 2.805-7.623 5.923-15.112 9.618-22.366 1.702-3.343 3.027-6.872 4.652-10.256 3.062-6.375 6.618-12.473 10.761-18.226 5.026-6.981 11.826-11.308 20.208-13.234 1.541-.355 3.123-.531 4.684-.796.145-.024.281-.09.423-.136h1.69zM71.557 60.713c.051.053.103.106.157.159 2.438-.458 4.877-.916 7.546-1.415l-3.338-4.464-4.365 5.72zm21.501-18.809c0 3.512-2.853 6.359-6.371 6.359-3.518 0-6.37-2.847-6.37-6.359s2.852-6.359 6.37-6.359c3.518 0 6.371 2.847 6.371 6.359z" style="fill:none;fill-rule:nonzero;stroke:#fff;stroke-width:2px" transform="translate(3.44 11.897) scale(.80232)"/><path d="M96.001 22.186c1.65.488 2.824 1.472 3.325 3.149.717 2.397-.513 4.221-3.018 4.466-3.247.317-6.41.977-9.464 2.138-5.074 1.928-9.997 5.965-12.247 10.107.888.81 1.863 1.562 2.658 2.468.794.907 1.406 1.971 2.105 2.96.202.285.402.582.655.822 2.186 2.083 4.204 4.297 5.709 6.931 1.109 1.938 1.898 4 2.239 6.192.128.819.005 1.729-.22 2.539-.344 1.241-1.261 2.007-2.554 2.248-5.125.965-10.248 1.933-15.379 2.862-.642.117-1.324.014-2.165.014.105.392.147.747.292 1.053a7634.679 7634.679 0 0 0 10.097 21.506c1.559 3.302.133 6.57-3.311 7.51-1.875.513-3.714-.096-4.622-1.789-1.429-2.659-2.747-5.38-4.036-8.11-2.121-4.501-4.18-9.03-6.266-13.544l-.313-.671c-.157.333-.272.57-.382.81-3.077 6.776-5.731 13.716-8.139 20.751-.434 1.269-.962 2.488-2.271 3.113-1.873.891-3.603.46-5.17-.723-1.562-1.181-2.425-2.799-1.914-4.721.635-2.396 1.497-4.736 2.355-7.067 2.805-7.623 5.923-15.112 9.618-22.366 1.702-3.343 3.027-6.872 4.652-10.256 3.062-6.375 6.618-12.473 10.761-18.226 5.026-6.981 11.826-11.308 20.208-13.234 1.541-.355 3.123-.531 4.684-.796.145-.024.281-.09.423-.136h1.69zM71.557 60.713c.051.053.103.106.157.159 2.438-.458 4.877-.916 7.546-1.415l-3.338-4.464-4.365 5.72zm21.501-18.809c0 3.512-2.853 6.359-6.371 6.359-3.518 0-6.37-2.847-6.37-6.359s2.852-6.359 6.37-6.359c3.518 0 6.371 2.847 6.371 6.359z" style="fill:#ffa400;fill-rule:nonzero;stroke:#ffa400;stroke-width:1px;stroke-linecap:butt;stroke-linejoin:round" transform="translate(3.44 11.897) scale(.80232)"/></g></svg>