<?xml version="1.0" encoding="UTF-8" standalone="no"?>
<!DOCTYPE svg PUBLIC "-//W3C//DTD SVG 1.1//EN" "http://www.w3.org/Graphics/SVG/1.1/DTD/svg11.dtd">
<svg width="100%" height="100%" viewBox="0 0 120 120" version="1.1" xmlns="http://www.w3.org/2000/svg" xmlns:xlink="http://www.w3.org/1999/xlink" xml:space="preserve" xmlns:serif="http://www.serif.com/" style="fill-rule:evenodd;clip-rule:evenodd;stroke-linejoin:round;stroke-miterlimit:2;">
    <g transform="matrix(1,0,0,1,-0.372739,0.234434)">
        <g>
            <path d="M46.777,91.031C34.206,91.031 24,80.825 24,68.254C24,55.683 34.206,45.477 46.777,45.477C52.41,45.477 57.568,47.526 61.546,50.919L61.55,50.91L61.65,51.008C62.39,51.647 63.088,52.333 63.74,53.06L87.969,76.842C89.803,78.3 90.98,80.55 90.98,83.073C90.98,87.465 87.414,91.031 83.022,91.031L46.777,91.031ZM56.005,75.344C57.474,73.362 58.344,70.909 58.344,68.254C58.344,61.672 53,56.328 46.418,56.328C39.836,56.328 34.492,61.672 34.492,68.254C34.492,74.836 39.836,80.179 46.418,80.179C49.08,80.179 51.539,79.305 53.524,77.829L57.13,82.053C56.336,82.219 55.74,82.923 55.74,83.766C55.74,84.732 56.524,85.516 57.49,85.516L68.142,85.516C69.105,85.516 69.887,84.738 69.892,83.775C69.897,82.812 69.123,82.026 68.16,82.016L61.642,81.948L56.005,75.344Z" style="fill:rgb(255,164,0);"/>
            <g transform="matrix(1,0,0,1,-1.35399,-0.942707)">
                <circle cx="47.933" cy="69.196" r="8.422" style="fill:rgb(255,164,0);"/>
            </g>
            <rect x="38.158" y="94.016" width="12.779" height="3.984" style="fill:rgb(255,164,0);"/>
            <g transform="matrix(1,0,0,1,30.823,0)">
                <rect x="38.158" y="94.016" width="12.779" height="3.984" style="fill:rgb(255,164,0);"/>
            </g>
            <g transform="matrix(1,0,0,0.915202,0,3.27611)">
                <path d="M35.483,42.3L57.49,42.3C59.56,42.3 61.24,40.619 61.24,38.55C61.24,36.48 59.56,34.8 57.49,34.8L35.483,34.8C33.413,34.8 31.733,36.48 31.733,38.55C31.733,40.619 33.413,42.3 35.483,42.3Z" style="fill:rgb(255,164,0);"/>
            </g>
            <path d="M86.158,37.524L86.158,71.826L90.158,71.826L90.158,33.847L96.354,27.334C97.201,26.443 96.628,24.52 95.075,23.043C93.522,21.566 91.573,21.089 90.726,21.98L81.717,31.452C81.432,31.752 81.307,32.168 81.327,32.644L75.296,38.985C73.965,40.384 73.998,42.581 75.37,43.886C76.743,45.192 78.938,45.115 80.27,43.715L86.158,37.524Z" style="fill:rgb(255,164,0);"/>
        </g>
    </g>
</svg>
