<svg id="personal" viewBox="0 0 120 120" xmlns="http://www.w3.org/2000/svg" xml:space="preserve" style="fill-rule:evenodd;clip-rule:evenodd;stroke-linejoin:round;stroke-miterlimit:2"><path d="M46.777 91.031C34.206 91.031 24 80.825 24 68.254c0-12.571 10.206-22.777 22.777-22.777a22.684 22.684 0 0 1 14.769 5.442l.004-.009.1.098c.74.639 1.438 1.325 2.09 2.052l24.229 23.782a7.943 7.943 0 0 1 3.011 6.231 7.962 7.962 0 0 1-7.958 7.958H46.777zm9.228-15.687a11.867 11.867 0 0 0 2.339-7.09c0-6.582-5.344-11.926-11.926-11.926s-11.926 5.344-11.926 11.926 5.344 11.925 11.926 11.925c2.662 0 5.121-.874 7.106-2.35l3.606 4.224a1.75 1.75 0 0 0 .36 3.463h10.652a1.75 1.75 0 0 0 .018-3.5l-6.518-.068-5.637-6.604z" style="fill:#ffa400" transform="translate(-.373 .234)"/><circle cx="47.933" cy="69.196" r="8.422" style="fill:#ffa400" transform="translate(-1.727 -.708)"/><path style="fill:#ffa400" d="M38.158 94.016h12.779V98H38.158z" transform="translate(-.373 .234)"/><path style="fill:#ffa400" d="M38.158 94.016h12.779V98H38.158z" transform="translate(30.45 .234)"/><path d="M35.483 42.3H57.49c2.07 0 3.75-1.681 3.75-3.75 0-2.07-1.68-3.75-3.75-3.75H35.483c-2.07 0-3.75 1.68-3.75 3.75 0 2.069 1.68 3.75 3.75 3.75z" style="fill:#ffa400" transform="matrix(1 0 0 .9152 -.373 3.51)"/><path d="M86.158 37.524v34.302h4V33.847l6.196-6.513c.847-.891.274-2.814-1.279-4.291-1.553-1.477-3.502-1.954-4.349-1.063l-9.009 9.472c-.285.3-.41.716-.39 1.192l-6.031 6.341c-1.331 1.399-1.298 3.596.074 4.901 1.373 1.306 3.568 1.229 4.9-.171l5.888-6.191z" style="fill:#ffa400" transform="translate(-.373 .234)"/></svg>