<?xml version="1.0" standalone="no"?>
<!DOCTYPE svg PUBLIC "-//W3C//DTD SVG 20010904//EN"
 "http://www.w3.org/TR/2001/REC-SVG-20010904/DTD/svg10.dtd">
<svg version="1.0" xmlns="http://www.w3.org/2000/svg"
 width="417.000000pt" height="487.000000pt" viewBox="0 0 417.000000 487.000000"
 preserveAspectRatio="xMidYMid meet">

<g transform="translate(0.000000,487.000000) scale(0.100000,-0.100000)"
fill="#000000" stroke="none">
<path d="M2765 3810 c-74 -11 -125 -41 -170 -102 -22 -29 -40 -56 -40 -60 0
-3 -4 -10 -9 -15 -5 -5 -6 -3 -2 5 4 6 3 12 -2 12 -12 0 -26 -30 -23 -49 1 -7
-2 -10 -8 -6 -6 3 -11 0 -11 -8 0 -8 -17 -27 -37 -43 -47 -35 -71 -63 -104
-123 -25 -44 -28 -46 -79 -51 -38 -4 -57 -12 -70 -28 -10 -12 -26 -22 -35 -22
-9 0 -14 -4 -11 -8 2 -4 -44 -8 -102 -8 -73 -1 -121 -6 -151 -18 -51 -19 -59
-20 -44 -5 6 6 35 17 64 24 30 7 44 13 32 14 -13 1 -49 -8 -80 -18 -32 -11
-80 -22 -108 -26 -123 -17 -249 -100 -312 -206 -32 -55 -37 -74 -33 -144 l2
-40 23 50 c27 59 116 155 165 179 19 9 26 11 16 4 -113 -74 -174 -180 -210
-363 -25 -125 -25 -125 -40 -119 -17 7 -31 -18 -54 -89 -12 -41 -15 -89 -13
-224 2 -169 -2 -218 -19 -208 -9 5 -19 -25 -66 -188 -15 -53 -29 -95 -31 -93
-2 2 12 61 32 132 30 108 38 155 46 289 10 181 28 282 66 387 28 79 29 90 18
187 l-8 64 -18 -59 c-11 -33 -22 -83 -25 -111 -4 -32 -16 -66 -30 -85 l-24
-32 -1 35 c-1 19 -3 26 -6 17 -2 -10 -10 -18 -17 -18 -22 0 -87 -36 -79 -44 4
-4 0 -4 -8 -1 -11 4 -18 -1 -22 -15 -3 -12 -10 -19 -15 -16 -10 6 -92 -77 -92
-93 0 -5 -6 -16 -13 -23 -28 -29 -36 -64 -22 -92 16 -30 10 -33 -17 -9 -10 9
-20 14 -21 12 -2 -2 -21 -39 -42 -82 -21 -42 -41 -80 -46 -83 -5 -3 -8 -15 -8
-27 0 -12 -11 -53 -26 -92 -21 -55 -27 -91 -29 -165 -1 -54 -12 -139 -25 -195
-25 -108 -29 -186 -12 -225 l11 -25 -5 28 c-8 41 4 77 26 77 18 0 19 -6 13
-82 -6 -87 19 -489 32 -509 4 -7 8 -39 10 -73 3 -56 3 -58 -7 -26 -13 41 -28
62 -40 55 -4 -3 -20 -3 -34 1 -18 4 -23 9 -15 14 9 6 7 10 -7 14 -11 4 -25 17
-31 30 -11 25 -65 42 -97 29 -34 -12 -57 -43 -45 -58 6 -7 8 -25 4 -39 -4 -17
-2 -26 6 -26 6 0 10 -8 9 -17 -1 -10 -1 -29 0 -42 1 -24 1 -24 15 -5 18 25 32
11 19 -19 -6 -13 -8 -42 -3 -69 4 -26 3 -45 -2 -42 -15 10 -21 -27 -10 -64 10
-33 10 -35 -3 -18 -8 11 -15 14 -15 7 0 -7 -4 -10 -9 -7 -5 4 -12 0 -14 -6 -4
-10 -6 -10 -6 -1 -1 7 5 18 12 25 12 10 10 22 -11 68 -14 30 -43 82 -64 114
-21 33 -38 65 -39 70 -2 25 -9 53 -24 93 -13 33 -20 41 -29 33 -7 -5 -16 -7
-20 -3 -4 4 -2 -6 3 -22 10 -28 10 -29 -4 -11 -18 24 -20 86 -3 108 25 30 88
32 88 2 0 -18 18 -18 36 1 13 12 12 15 -6 25 -17 9 -19 14 -9 26 19 23 46 16
88 -21 21 -19 41 -35 44 -35 9 0 -5 84 -20 113 -18 36 -69 67 -111 67 -42 0
-98 -26 -117 -54 -18 -25 -19 -40 -3 -30 7 5 2 -8 -10 -27 -63 -94 -80 -162
-87 -353 -3 -71 -10 -135 -15 -141 -7 -8 -6 -23 1 -44 9 -24 9 -39 0 -57 -9
-20 -8 -30 8 -52 10 -15 25 -39 34 -53 26 -43 106 -91 145 -87 20 3 31 0 29
-6 -5 -16 -86 -15 -124 1 -43 18 -42 10 2 -16 28 -16 60 -22 148 -27 78 -4
108 -3 97 5 -8 5 -33 13 -55 17 -50 8 -61 14 -44 25 12 7 11 9 -1 10 -8 0 -4
4 10 8 35 11 52 3 44 -21 -4 -14 -2 -18 5 -14 6 4 11 16 11 28 0 21 9 21 53 3
14 -6 17 -2 17 27 0 19 5 39 11 45 7 7 8 22 0 49 -12 45 -8 55 10 22 34 -65
222 -268 273 -295 l28 -15 -28 -30 c-16 -16 -46 -39 -66 -51 -21 -11 -38 -26
-38 -33 0 -6 -7 -14 -15 -18 -8 -3 -15 -10 -15 -15 0 -5 25 4 55 21 35 19 62
27 75 23 12 -4 20 -2 20 5 0 6 5 8 11 4 7 -4 10 -1 7 7 -3 8 2 20 11 27 14 12
14 13 -2 8 -27 -9 -20 1 21 25 20 13 39 26 42 29 3 4 12 9 21 12 25 10 20 -24
-9 -54 -30 -33 -22 -36 16 -8 15 11 37 22 48 24 35 7 64 30 65 51 1 37 9 65
28 101 11 20 17 42 15 49 -7 17 14 57 26 50 4 -3 6 3 3 14 -3 11 7 32 27 55
18 20 30 42 27 50 -3 7 -1 18 3 22 11 11 13 88 6 209 -13 234 -5 592 16 673 7
26 8 71 4 115 -4 40 -10 95 -13 122 -4 44 0 57 32 110 32 54 56 116 60 155 1
8 5 25 9 37 4 12 3 24 -2 27 -5 3 -8 17 -6 31 1 15 -4 42 -12 61 -8 19 -11 40
-7 47 4 6 8 22 9 34 4 38 48 108 67 107 9 -1 17 3 17 9 0 7 4 7 12 -1 7 -7 19
-12 28 -12 17 -1 57 -40 84 -83 9 -15 28 -32 42 -37 31 -12 32 -50 3 -168 -25
-102 -45 -150 -99 -241 -45 -76 -76 -199 -87 -343 -6 -95 0 -107 35 -63 14 17
21 48 26 105 l7 81 32 -6 c30 -7 82 -26 117 -44 8 -4 31 -34 50 -67 20 -32 49
-65 64 -72 39 -19 102 -8 156 28 l45 30 -50 1 -50 2 60 7 c33 3 61 6 63 5 1
-2 -14 -40 -34 -85 -36 -84 -114 -191 -256 -353 -37 -42 -77 -91 -90 -107 -12
-17 -27 -30 -34 -30 -6 0 -17 -7 -24 -15 -7 -8 -22 -15 -34 -15 -35 0 -67 -29
-92 -85 -12 -29 -28 -56 -33 -60 -14 -8 -13 -99 2 -235 l12 -105 68 -39 c51
-29 71 -36 79 -28 9 9 9 12 -1 12 -7 0 -10 7 -7 18 3 9 1 24 -4 32 -6 10 -10
11 -10 3 0 -7 -4 -13 -10 -13 -5 0 -10 9 -10 20 0 17 -14 25 -41 22 -4 -1 -6
4 -5 11 0 7 -3 13 -7 14 -9 2 -47 43 -47 50 0 2 6 1 12 -4 7 -4 33 -8 57 -8
52 -1 71 -20 96 -98 30 -92 49 -113 117 -135 77 -25 154 -24 192 3 40 28 48
33 71 41 19 6 18 7 -5 14 -24 8 -23 8 7 9 23 1 31 5 27 15 -3 8 -13 13 -22 11
-9 -1 -30 4 -45 12 -15 7 -32 11 -37 8 -6 -3 -10 -2 -10 4 0 5 6 12 13 14 6 3
-14 6 -45 6 -32 1 -58 5 -58 10 0 5 8 7 19 4 12 -3 20 2 24 16 3 12 1 21 -4
21 -5 0 -9 -4 -9 -10 0 -5 -9 -10 -19 -10 -14 0 -18 5 -14 20 3 11 0 20 -6 20
-6 0 -11 -8 -11 -17 0 -15 -15 -10 -15 5 0 4 -4 13 -9 21 -6 9 -4 17 7 22 9 5
13 17 10 28 -4 16 -1 19 16 14 12 -3 21 -11 21 -19 0 -21 46 -47 71 -39 12 4
19 3 16 -2 -7 -11 23 -74 33 -68 4 2 18 -4 30 -15 32 -28 35 -25 8 9 -13 16
-31 31 -42 34 -10 3 -15 11 -11 16 3 6 11 9 16 6 26 -17 3 15 -44 60 -29 27
-59 65 -65 83 -6 18 -7 30 -2 27 5 -3 11 4 15 15 4 11 11 18 16 15 5 -4 9 3 9
14 0 36 30 23 50 -21 11 -24 20 -37 20 -30 0 40 -74 115 -94 95 -3 -4 -6 -2
-6 3 0 6 5 15 11 21 15 15 20 71 8 79 -5 3 -9 -4 -9 -15 0 -23 -1 -23 -42 -26
-15 -1 -25 2 -23 6 3 4 0 11 -7 16 -9 5 -3 10 17 14 28 6 29 7 8 14 -13 4 -23
11 -23 16 0 16 41 10 69 -11 l28 -19 75 74 c42 41 79 75 83 75 4 0 14 8 23 18
10 10 13 12 7 4 -12 -17 146 101 165 123 7 8 19 15 26 15 8 0 14 3 14 8 0 4
26 28 58 54 125 101 212 180 212 191 0 6 9 19 21 31 78 80 149 160 145 164 -5
5 -60 -38 -103 -81 -34 -32 -28 -10 10 37 66 82 117 180 117 223 0 21 -3 23
-14 14 -11 -9 -16 -9 -22 0 -4 7 -2 15 4 17 8 2 7 8 -3 19 -21 20 -19 33 5 33
11 0 20 5 20 11 0 5 -5 7 -11 3 -14 -8 -29 14 -29 44 0 12 -4 22 -10 22 -11 0
-27 56 -34 120 -5 51 -15 82 -30 92 -5 3 -36 10 -68 13 -67 8 -81 20 -41 37
27 11 27 11 -27 20 -53 9 -152 5 -233 -8 -33 -6 -39 -4 -44 15 -9 36 -50 26
-122 -32 -96 -78 -121 -93 -121 -74 0 17 101 121 128 132 15 6 15 8 -4 15 -12
5 -84 18 -160 30 -169 26 -204 36 -204 58 1 50 23 160 36 180 13 19 22 23 50
20 19 -2 34 -1 34 2 0 3 17 14 38 23 26 11 47 32 70 70 26 44 89 190 119 277
3 8 18 25 34 38 25 20 28 21 23 5 -3 -10 8 10 24 44 28 57 54 83 82 83 19 0 5
-40 -96 -278 -122 -282 -144 -366 -114 -423 26 -48 166 -77 277 -58 106 18
169 83 268 270 l37 70 28 -40 c35 -47 43 -53 84 -55 18 -1 38 -6 44 -10 7 -4
12 -3 12 3 0 5 23 18 51 29 36 13 47 21 35 25 -28 11 -18 22 32 36 39 10 44
14 30 22 -27 15 -21 39 12 50 26 10 30 16 30 49 0 21 4 40 9 42 6 2 14 40 19
86 7 71 6 84 -7 92 -10 6 -11 10 -3 10 20 0 14 28 -10 41 -11 6 -36 25 -53 41
-18 16 -41 35 -51 43 -17 13 -17 14 -2 15 9 0 29 -5 44 -10 33 -13 38 -9 36
35 -1 19 3 35 8 35 6 0 10 7 10 15 0 8 6 15 13 15 7 0 19 9 27 19 7 11 17 18
20 16 4 -3 12 7 18 20 12 26 39 28 93 7 15 -6 29 -8 32 -6 3 3 19 -2 36 -11
17 -8 31 -12 31 -9 0 16 39 -29 44 -51 4 -17 11 -22 25 -18 21 5 25 52 22 231
-1 83 -4 101 -30 150 -17 32 -37 74 -45 95 -8 20 -18 37 -21 37 -3 0 -1 -10 5
-22 9 -21 9 -21 -2 -3 -41 62 -113 125 -162 141 -28 9 -55 19 -60 22 -23 13
-179 21 -241 12z m-65 -34 c0 -9 -81 -68 -86 -63 -3 3 13 19 37 36 42 31 49
35 49 27z m412 -261 c3 -13 1 -22 -3 -19 -9 5 -13 44 -5 44 2 0 6 -11 8 -25z
m55 -17 c-3 -8 -6 -5 -6 6 -1 11 2 17 5 13 3 -3 4 -12 1 -19z m-694 1 c-6 -6
-9 -18 -6 -25 3 -9 -2 -14 -13 -13 -11 0 -14 3 -6 6 6 2 10 9 6 14 -7 12 4 29
19 29 8 0 8 -3 0 -11z m566 -51 c9 -26 9 -30 -1 -20 -11 11 -22 52 -14 52 2 0
9 -15 15 -32z m-625 -15 c-4 -16 -16 -37 -27 -48 -11 -11 -18 -15 -15 -10 3 6
12 27 22 48 20 44 29 48 20 10z m875 -47 c-9 -8 -10 -5 -5 14 3 14 6 32 7 40
1 8 4 2 6 -14 3 -16 -1 -34 -8 -40z m-116 34 c5 -20 -12 -24 -25 -5 -12 15 -9
25 6 25 7 0 16 -9 19 -20z m-149 -56 c3 -8 2 -12 -4 -9 -6 3 -10 10 -10 16 0
14 7 11 14 -7z m61 6 c-3 -5 -12 -10 -18 -10 -7 0 -6 4 3 10 19 12 23 12 15 0z
m-811 -39 c-5 -4 -22 -13 -37 -19 -25 -11 -28 -10 -25 6 5 27 30 42 51 30 11
-5 15 -13 11 -17z m41 19 c3 -5 2 -10 -4 -10 -5 0 -13 5 -16 10 -3 6 -2 10 4
10 5 0 13 -4 16 -10z m840 -90 c3 -5 1 -10 -4 -10 -6 0 -11 5 -11 10 0 6 2 10
4 10 3 0 8 -4 11 -10z m-695 -180 c6 -11 8 -20 6 -20 -3 0 -10 9 -16 20 -6 11
-8 20 -6 20 3 0 10 -9 16 -20z m50 -20 c0 -5 -8 -10 -17 -10 -15 0 -16 2 -3
10 19 12 20 12 20 0z m340 -20 c14 -11 21 -20 15 -20 -5 0 -21 9 -35 20 -14
11 -20 20 -15 20 6 0 21 -9 35 -20z m-366 -29 c-3 -3 -15 6 -27 18 l-22 24 27
-19 c14 -10 24 -21 22 -23z m-369 -60 c-21 -43 -29 -39 -8 4 9 19 18 33 21 31
2 -2 -4 -18 -13 -35z m721 18 c19 -22 19 -22 -3 -10 -13 6 -23 16 -23 21 0 15
5 12 26 -11z m108 -8 c-2 -3 -12 3 -22 13 -16 17 -16 18 5 5 12 -7 20 -15 17
-18z m-98 -42 c8 -14 -10 -11 -32 6 -18 13 -18 14 4 8 12 -3 25 -9 28 -14z
m34 -34 c13 -16 10 -23 -32 -75 -34 -43 -84 -75 -93 -60 -4 6 -8 39 -11 75 -4
63 -4 64 24 68 60 9 100 6 112 -8z m-650 -115 c0 -5 -2 -10 -4 -10 -3 0 -8 5
-11 10 -3 6 -1 10 4 10 6 0 11 -4 11 -10z m205 -38 c-9 -9 -35 8 -35 23 0 13
3 12 20 -2 11 -9 17 -19 15 -21z m465 -2 c8 -5 11 -10 5 -10 -5 0 -17 5 -25
10 -8 5 -10 10 -5 10 6 0 17 -5 25 -10z m-324 -82 c13 -25 12 -30 -11 -64 -14
-20 -25 -42 -25 -48 0 -6 -17 -28 -39 -49 -21 -20 -41 -51 -45 -68 -7 -34 -32
-70 -70 -100 -20 -16 -24 -17 -20 -5 3 9 2 16 -4 16 -10 0 -8 62 3 80 3 5 13
10 21 10 8 0 14 7 14 15 0 8 9 15 21 15 11 0 17 5 14 10 -3 6 5 10 18 10 38 0
41 26 6 60 -29 27 -30 31 -15 45 9 9 16 21 16 27 0 12 42 54 61 60 8 3 10 11
6 22 -4 9 -11 14 -17 11 -11 -7 -14 8 -3 18 9 9 51 -31 69 -65z m-363 14 c-6
-15 -4 -15 9 -4 11 9 18 10 23 2 3 -5 1 -10 -5 -10 -6 0 -8 -4 -5 -10 4 -7 -2
-7 -18 -1 -14 6 -28 7 -32 3 -3 -3 -3 1 1 11 3 10 1 17 -5 17 -8 0 -8 4 1 14
17 18 39 1 31 -22z m550 31 c-12 -2 -27 -11 -33 -19 -16 -18 -40 -18 -40 0 0
16 21 24 65 23 21 0 23 -1 8 -4z m-388 -13 c-3 -5 -12 -10 -18 -10 -7 0 -6 4
3 10 19 12 23 12 15 0z m-45 -69 c0 -5 -7 -11 -15 -15 -15 -5 -20 5 -8 17 9
10 23 9 23 -2z m482 -42 c17 -9 18 -13 7 -20 -23 -15 -39 -10 -39 11 0 23 4
24 32 9z m-1618 -798 c-4 -23 -9 -40 -11 -37 -3 3 -2 23 2 46 4 23 9 39 11 37
3 -2 2 -23 -2 -46z m-26 -98 c-5 -21 -12 -40 -15 -43 -6 -6 7 61 14 73 10 17
11 4 1 -30z m89 5 c-3 -7 -5 -2 -5 12 0 14 2 19 5 13 2 -7 2 -19 0 -25z m-113
-105 c-3 -27 -1 -127 4 -223 5 -113 5 -177 -1 -182 -13 -8 -1 -247 14 -303 8
-26 9 -95 5 -201 -8 -178 -9 -190 -19 -200 -4 -4 -7 -14 -7 -22 0 -18 -109
-162 -122 -162 -5 0 11 26 35 57 65 85 87 132 75 163 -13 35 -16 209 -3 213
11 4 12 96 2 202 -9 88 -9 165 -2 328 3 80 2 126 -4 123 -5 -4 -12 -2 -16 4
-3 5 -1 10 5 10 7 0 9 7 6 16 -3 8 -2 12 4 9 6 -3 10 -1 10 6 0 7 -8 9 -21 6
-16 -4 -18 -3 -8 9 7 8 7 14 1 14 -5 0 -9 15 -8 33 1 17 -4 38 -11 45 -7 8
-11 17 -8 22 3 4 -2 21 -10 36 -22 42 -20 44 35 44 l49 0 -5 -47z m-287 -770
c-3 -10 -5 -4 -5 12 0 17 2 24 5 18 2 -7 2 -21 0 -30z m967 -89 c21 -8 10 -24
-17 -25 -12 0 -16 -3 -9 -6 15 -6 -31 -64 -59 -75 -23 -9 -24 0 -2 24 15 17
15 18 -10 18 -15 0 -27 5 -27 10 0 6 14 10 30 10 25 0 30 4 30 25 0 20 5 25
24 25 13 0 31 -3 40 -6z m27 -61 c10 -12 11 -17 2 -20 -7 -2 -10 -10 -7 -17 3
-7 -1 -13 -8 -13 -8 0 -13 13 -13 34 0 37 6 41 26 16z m-49 -39 c-5 -16 -8
-45 -8 -64 1 -36 -13 -62 -28 -53 -4 3 -2 9 5 14 8 5 10 9 4 9 -18 -1 -52 -36
-73 -76 -12 -21 -21 -36 -22 -32 -1 22 117 244 126 236 2 -3 0 -18 -4 -34z
m-1182 -48 c-14 -14 -22 -2 -14 18 5 14 9 15 15 4 4 -7 4 -17 -1 -22z m1241
-78 c25 -34 25 -52 1 -37 -24 15 -42 56 -41 93 l1 31 10 -30 c6 -16 19 -42 29
-57z m-1241 20 c0 -19 -2 -20 -10 -8 -13 19 -13 30 0 30 6 0 10 -10 10 -22z
m-3 -70 c-3 -8 -6 -5 -6 6 -1 11 2 17 5 13 3 -3 4 -12 1 -19z m496 -134 c8 -8
-3 -34 -14 -34 -5 0 -9 9 -9 20 0 19 11 26 23 14z m-90 -49 c-3 -9 -8 -14 -10
-11 -3 3 -2 9 2 15 9 16 15 13 8 -4z"/>
<path d="M3278 3107 c-3 -19 -2 -25 4 -19 6 6 8 18 6 28 -3 14 -5 12 -10 -9z"/>
<path d="M3260 3062 c0 -4 9 -13 20 -19 16 -11 18 -10 14 1 -6 15 -34 30 -34
18z"/>
<path d="M3195 2985 c-22 -13 -52 -25 -66 -25 -15 0 -38 -9 -53 -21 -21 -17
-24 -24 -15 -35 9 -11 9 -14 0 -14 -7 0 -9 -4 -6 -10 3 -5 18 -10 33 -10 l27
0 -25 20 c-20 15 -22 22 -13 31 10 10 16 9 28 -1 13 -11 21 -11 35 -2 11 6 26
9 35 6 11 -5 15 1 15 20 0 18 8 30 25 38 14 6 25 15 25 20 0 11 0 11 -45 -17z"/>
<path d="M3227 2974 c-4 -4 -7 -24 -7 -45 0 -21 -6 -58 -14 -81 -8 -24 -17
-61 -21 -83 -7 -44 -22 -68 -36 -59 -14 8 -11 48 6 80 8 16 15 38 15 49 0 17
2 17 10 5 11 -17 13 -1 4 25 -5 11 -13 3 -29 -32 -13 -27 -64 -92 -118 -148
-52 -55 -110 -120 -129 -145 -19 -25 -45 -51 -58 -58 -28 -14 -90 -9 -132 12
-26 13 -27 13 -42 -32 -8 -26 -14 -47 -13 -47 1 0 17 -11 36 -24 19 -13 30
-18 26 -11 -5 8 -3 11 5 8 8 -2 18 -17 23 -34 6 -16 18 -40 28 -53 14 -17 19
-41 19 -82 0 -52 -3 -60 -27 -77 -38 -26 -76 -34 -108 -22 -33 13 -30 -9 4
-26 19 -10 20 -13 6 -24 -8 -7 -15 -17 -15 -22 0 -6 7 -5 15 2 8 7 15 9 15 5
0 -5 9 0 20 10 11 10 17 22 13 28 -3 5 -1 7 4 4 6 -4 28 6 49 21 l39 28 3 -60
c3 -51 8 -66 32 -91 23 -24 26 -34 19 -53 -5 -13 -13 -20 -19 -17 -5 3 -10 1
-10 -4 0 -6 6 -11 14 -11 21 0 26 -24 11 -54 -8 -14 -10 -26 -5 -26 14 0 25
23 26 54 0 17 5 31 11 33 21 7 15 -151 -8 -212 -25 -68 -28 -226 -5 -291 8
-23 22 -88 30 -145 9 -57 27 -144 41 -194 13 -49 31 -128 40 -175 9 -47 35
-157 57 -245 28 -111 41 -186 43 -245 2 -47 8 -117 14 -156 14 -81 8 -104 -41
-160 l-33 -37 30 7 c16 4 33 12 36 18 4 6 9 5 13 -3 3 -8 4 -2 1 12 -4 20 2
31 25 49 16 12 27 27 24 32 -3 5 -1 15 5 21 5 7 10 22 10 32 -1 11 2 43 6 72
5 36 3 62 -6 84 -8 22 -13 85 -14 188 -1 86 -7 194 -13 241 -6 47 -13 109 -16
138 -3 29 -10 61 -15 71 -9 16 -15 94 -26 351 -3 63 -10 138 -17 166 -10 44
-17 53 -42 62 -45 17 -59 54 -71 187 -3 33 -8 78 -11 99 -6 35 -3 43 22 65 16
14 25 23 20 19 -22 -17 -22 -5 0 39 13 25 24 59 24 75 0 15 5 28 10 28 6 0 10
-16 8 -35 -1 -19 2 -38 6 -42 5 -4 6 27 2 70 -4 43 -4 98 0 122 6 42 8 44 46
50 56 10 82 38 74 80 -5 27 -2 36 14 48 32 22 41 94 19 151 -10 26 -23 55 -29
64 -7 9 -1 5 13 -10 14 -15 27 -24 30 -22 10 10 29 -39 29 -75 0 -33 1 -34 10
-12 12 34 -3 71 -52 129 -44 53 -47 64 -25 82 8 7 15 8 15 2 0 -17 31 -84 36
-79 3 3 -2 19 -10 36 -18 33 -22 121 -6 121 6 0 9 3 8 8 -1 4 4 41 11 83 13
76 13 107 -2 93z m-77 -298 c0 -2 -8 -10 -17 -17 -16 -13 -17 -12 -4 4 13 16
21 21 21 13z m-30 -121 c0 -5 -5 -3 -10 5 -5 8 -10 20 -10 25 0 6 5 3 10 -5 5
-8 10 -19 10 -25z m60 -5 c23 -45 26 -97 6 -122 -19 -26 -25 -12 -14 32 8 30
7 51 -4 85 -19 56 -15 57 12 5z m-158 5 c3 -13 1 -22 -3 -19 -9 5 -13 44 -5
44 2 0 6 -11 8 -25z m98 -69 c-1 -6 -6 -1 -13 12 -7 12 -17 19 -22 15 -4 -4
-5 0 -2 10 4 10 7 24 7 30 1 7 7 -3 15 -22 8 -18 15 -38 15 -45z m35 -15 c-5
-31 -9 -40 -15 -30 -5 7 -5 18 -1 22 5 5 7 29 4 55 -3 41 -2 44 7 22 7 -14 9
-44 5 -69z m-111 -18 c4 -8 13 -13 21 -9 8 3 17 0 21 -6 4 -6 3 -8 -3 -5 -7 4
-15 -18 -23 -58 -7 -35 -18 -69 -26 -76 -8 -6 -12 -15 -9 -19 3 -5 1 -11 -5
-15 -5 -3 -11 0 -12 7 0 7 -2 18 -3 23 -20 111 -18 137 9 88 20 -37 21 -21 0
19 -18 35 -12 80 10 72 8 -3 17 -12 20 -21z m76 -43 c6 -11 8 -20 6 -20 -3 0
-10 9 -16 20 -6 11 -8 20 -6 20 3 0 10 -9 16 -20z m-18 -42 c-9 -9 -12 -7 -12
12 0 19 3 21 12 12 9 -9 9 -15 0 -24z m-332 7 c0 -8 -2 -15 -4 -15 -2 0 -6 7
-10 15 -3 8 -1 15 4 15 6 0 10 -7 10 -15z m27 -52 c-3 -10 -5 -4 -5 12 0 17 2
24 5 18 2 -7 2 -21 0 -30z m351 13 c2 -28 -16 -46 -44 -46 -29 0 -31 17 -4 45
26 27 46 28 48 1z m-138 -182 c0 -16 -11 -40 -27 -58 l-28 -30 26 16 26 17 -7
-37 c-3 -20 -13 -48 -21 -62 l-14 -25 -3 23 c-2 13 5 33 15 45 15 19 16 20 1
8 -16 -12 -19 -10 -27 12 -6 16 -6 37 1 60 8 27 8 45 -4 80 -8 24 -12 49 -10
56 7 20 72 -75 72 -105z m-70 16 c0 -31 -15 -31 -16 1 -1 16 2 26 7 23 5 -3 9
-14 9 -24z m50 -594 c0 -8 -4 -18 -10 -21 -5 -3 -10 3 -10 14 0 12 5 21 10 21
6 0 10 -6 10 -14z"/>
<path d="M3045 2418 c-2 -7 -6 -35 -9 -63 -6 -55 6 -27 17 38 5 35 1 51 -8 25z"/>
<path d="M3301 2964 c0 -11 3 -14 6 -6 3 7 2 16 -1 19 -3 4 -6 -2 -5 -13z"/>
<path d="M3276 2905 c-9 -26 -7 -32 5 -12 6 10 9 21 6 23 -2 3 -7 -2 -11 -11z"/>
<path d="M2048 2740 c-14 -33 -24 -60 -22 -60 7 0 57 111 52 115 -2 2 -16 -23
-30 -55z"/>
<path d="M2410 2200 c-9 -6 -10 -10 -3 -10 6 0 15 5 18 10 8 12 4 12 -15 0z"/>
<path d="M2841 1867 c-13 -21 -12 -21 5 -5 10 10 16 20 13 22 -3 3 -11 -5 -18
-17z"/>
<path d="M2758 1813 c7 -3 16 -2 19 1 4 3 -2 6 -13 5 -11 0 -14 -3 -6 -6z"/>
<path d="M571 1288 c2 -2 18 -14 34 -28 l30 -25 -24 28 c-14 15 -29 27 -34 27
-6 0 -8 -1 -6 -2z"/>
<path d="M445 1090 c3 -5 8 -10 11 -10 2 0 4 5 4 10 0 6 -5 10 -11 10 -5 0 -7
-4 -4 -10z"/>
<path d="M403 1065 c-8 -22 6 -33 17 -15 13 20 12 30 0 30 -6 0 -13 -7 -17
-15z"/>
<path d="M1910 720 c0 -5 12 -10 28 -10 35 -1 123 -42 100 -47 -9 -2 -31 3
-49 13 -48 25 -82 32 -104 23 -16 -6 -13 -8 15 -9 19 0 53 -12 75 -25 46 -29
67 -31 85 -10 10 13 10 19 -4 34 -27 29 -146 55 -146 31z"/>
<path d="M1870 585 c11 -13 10 -14 -4 -9 -26 10 -19 -19 14 -61 21 -27 30 -33
30 -20 0 10 -8 24 -17 32 -17 13 -17 14 2 11 11 -2 27 -18 37 -36 9 -18 19
-29 22 -23 10 15 -14 57 -39 71 -13 7 -26 21 -28 31 -3 11 -11 19 -17 19 -10
0 -10 -4 0 -15z"/>
<path d="M1972 480 c0 -14 2 -19 5 -12 2 6 2 18 0 25 -3 6 -5 1 -5 -13z"/>
<path d="M650 440 c0 -5 5 -10 11 -10 5 0 7 5 4 10 -3 6 -8 10 -11 10 -2 0 -4
-4 -4 -10z"/>
<path d="M305 400 c-3 -5 -1 -10 4 -10 6 0 11 5 11 10 0 6 -2 10 -4 10 -3 0
-8 -4 -11 -10z"/>
<path d="M2048 312 c19 -21 27 -20 19 3 -4 8 -13 15 -22 15 -13 0 -12 -3 3
-18z"/>
<path d="M311 268 c-11 -30 10 -36 145 -44 97 -7 101 -6 106 14 4 14 1 23 -11
26 -41 12 -139 26 -183 26 -41 0 -50 -3 -57 -22z"/>
<path d="M1590 243 c0 -36 8 -46 51 -76 30 -20 58 -27 151 -36 140 -13 248
-14 268 -1 12 8 10 10 -8 10 -15 0 -21 4 -16 12 5 7 3 8 -7 3 -19 -12 -90 -15
-83 -4 3 5 -2 9 -11 9 -9 0 -13 -4 -10 -10 3 -5 1 -10 -4 -10 -6 0 -11 5 -11
10 0 7 -6 7 -19 0 -27 -14 -41 -13 -41 4 0 15 -53 29 -58 15 -2 -5 -8 -9 -13
-9 -4 0 -6 7 -3 15 4 10 0 16 -12 17 -19 1 -32 4 -46 8 -5 1 -11 3 -15 4 -30
5 -73 31 -78 47 -10 30 -35 23 -35 -8z"/>
<path d="M3320 198 c0 -11 61 -58 74 -58 15 0 -12 44 -35 55 -34 18 -39 18
-39 3z"/>
<path d="M1357 193 c-3 -3 14 -43 38 -89 28 -54 39 -85 32 -88 -7 -2 8 -4 33
-4 25 0 37 2 28 5 -10 2 -18 9 -18 15 0 6 -15 26 -34 44 -18 18 -36 46 -39 64
-7 32 -30 63 -40 53z"/>
<path d="M1860 170 c0 -5 5 -10 10 -10 6 0 10 5 10 10 0 6 -4 10 -10 10 -5 0
-10 -4 -10 -10z"/>
<path d="M1001 136 c-6 -7 -7 -17 -3 -21 4 -5 1 -5 -6 -1 -7 4 -29 -7 -54 -28
-23 -20 -49 -36 -57 -36 -13 0 -14 -2 -2 -9 16 -10 45 3 71 31 8 9 31 18 50
20 29 2 64 27 65 47 0 10 -55 8 -64 -3z"/>
<path d="M3297 133 c-4 -3 9 -25 28 -48 25 -32 31 -45 22 -54 -8 -8 -5 -11 15
-11 28 0 28 4 12 73 -8 35 8 35 52 2 18 -14 55 -35 81 -46 36 -15 44 -22 33
-29 -12 -7 -9 -10 11 -10 15 0 41 -3 58 -6 20 -4 31 -3 31 5 0 6 -16 11 -35
11 -19 0 -35 5 -35 10 0 6 -6 10 -14 10 -7 0 -19 7 -26 15 -7 8 -16 12 -21 9
-5 -3 -9 0 -9 7 0 7 -3 9 -6 6 -4 -4 -14 2 -24 13 -29 34 -152 65 -173 43z"/>
<path d="M705 80 c-4 -7 6 -9 29 -7 49 5 58 17 13 17 -20 0 -39 -5 -42 -10z"/>
<path d="M658 54 c-16 -16 -7 -32 23 -43 32 -11 77 -15 51 -4 -6 2 -10 9 -7
13 3 5 1 11 -5 15 -5 3 -10 2 -10 -3 0 -16 -39 -2 -42 15 -2 8 -6 11 -10 7z"/>
<path d="M765 50 c3 -5 8 -10 11 -10 2 0 4 5 4 10 0 6 -5 10 -11 10 -5 0 -7
-4 -4 -10z"/>
<path d="M1068 43 c6 -2 18 -2 25 0 6 3 1 5 -13 5 -14 0 -19 -2 -12 -5z"/>
<path d="M2990 35 c0 -8 7 -15 15 -15 9 0 12 6 9 15 -4 8 -10 15 -15 15 -5 0
-9 -7 -9 -15z"/>
<path d="M1133 33 c15 -2 37 -2 50 0 12 2 0 4 -28 4 -27 0 -38 -2 -22 -4z"/>
<path d="M804 15 c-18 -14 -18 -14 3 -15 23 0 39 15 25 24 -5 3 -18 -1 -28 -9z"/>
</g>
</svg>
