<?xml version="1.0" standalone="no"?>
<!DOCTYPE svg PUBLIC "-//W3C//DTD SVG 20010904//EN"
 "http://www.w3.org/TR/2001/REC-SVG-20010904/DTD/svg10.dtd">
<svg version="1.0" xmlns="http://www.w3.org/2000/svg"
 width="417.000000pt" height="487.000000pt" viewBox="0 0 417.000000 487.000000"
 preserveAspectRatio="xMidYMid meet">

<g transform="translate(0.000000,487.000000) scale(0.100000,-0.100000)"
fill="#000000" stroke="none">
<path d="M3070 3975 c0 -8 5 -15 11 -15 8 0 8 -4 -1 -15 -16 -19 -5 -65 26
-110 13 -20 24 -45 24 -56 0 -15 5 -19 19 -14 24 7 53 -4 44 -18 -3 -5 0 -15
8 -21 19 -15 39 -61 39 -92 0 -13 7 -40 15 -60 l14 -35 21 21 c11 11 20 28 20
38 0 9 5 24 10 32 8 13 13 12 37 -7 16 -12 27 -29 25 -39 -6 -43 -2 -98 7
-107 6 -6 11 -18 11 -27 0 -16 45 -70 59 -70 4 0 7 14 6 30 -2 35 9 39 26 9 8
-15 8 -19 0 -15 -6 4 -11 2 -11 -4 0 -7 8 -9 19 -5 14 4 22 -2 32 -27 7 -18
14 -38 15 -44 1 -6 14 -23 28 -37 14 -14 26 -35 26 -45 0 -23 23 -45 35 -34 5
4 5 2 2 -4 -7 -12 41 -114 53 -114 22 0 160 -209 160 -242 0 -14 35 -49 42
-43 5 6 43 -72 57 -116 6 -20 9 -44 5 -53 -3 -9 -1 -23 6 -31 6 -8 10 -30 9
-49 -2 -22 3 -41 13 -53 9 -10 18 -31 20 -48 3 -26 7 -30 31 -27 15 1 27 -1
27 -6 0 -9 -26 -37 -59 -65 -23 -19 -116 -34 -106 -17 3 6 -1 10 -10 10 -8 0
-18 -7 -22 -16 -3 -8 -12 -13 -19 -10 -8 3 -14 2 -14 -3 0 -8 -22 -15 -84 -27
-10 -3 -39 -13 -64 -24 -24 -11 -55 -20 -68 -20 -12 0 -26 -4 -29 -10 -3 -5
-18 -10 -33 -10 -15 0 -56 -14 -90 -30 -88 -41 -184 -42 -342 -4 -63 15 -118
32 -122 38 -15 22 -7 54 17 70 14 9 25 23 25 30 0 20 -51 27 -84 10 -39 -19
-49 -7 -49 53 0 61 11 120 30 156 11 22 12 32 4 40 -9 9 -18 4 -37 -18 -15
-17 -30 -29 -34 -28 -4 1 -10 -15 -14 -35 -6 -41 -75 -152 -122 -198 -16 -16
-54 -61 -83 -99 -30 -39 -58 -73 -63 -76 -5 -3 -5 -14 -1 -25 6 -17 5 -18 -12
-4 -10 8 -31 33 -47 54 -15 21 -28 36 -28 32 0 -11 111 -179 160 -241 59 -76
71 -97 36 -65 l-27 25 21 -49 c32 -75 36 -174 11 -283 -28 -122 -47 -170 -88
-216 -19 -21 -32 -44 -30 -50 4 -14 40 -25 90 -26 20 -1 37 -5 37 -10 0 -8
-92 -28 -237 -51 -40 -7 -73 -14 -73 -17 0 -6 98 4 138 14 l23 6 -24 -26 c-13
-15 -36 -31 -50 -36 -23 -9 -27 -17 -28 -53 -2 -57 1 -70 15 -83 6 -5 9 -9 7
-8 -10 6 -29 -35 -36 -75 -4 -23 -11 -42 -16 -42 -5 0 -9 -12 -9 -27 0 -16 -9
-43 -20 -61 -20 -33 -27 -68 -11 -58 5 3 7 -9 5 -27 -1 -17 -4 -32 -5 -32 -2
0 -6 -39 -8 -90 -4 -71 11 -127 40 -156 25 -25 31 -24 23 5 -4 18 -1 26 13 30
18 6 36 60 65 201 5 27 13 52 18 55 4 3 10 21 14 40 5 33 5 33 -5 8 -6 -16
-15 -28 -21 -28 -6 0 -8 7 -5 15 4 8 2 17 -3 20 -12 8 0 77 16 95 23 24 39 -4
39 -71 0 -32 3 -59 7 -59 5 0 8 5 8 10 0 6 5 10 11 10 5 0 8 -4 5 -9 -3 -4 -1
-23 5 -42 10 -33 16 -107 23 -259 4 -96 16 -163 29 -172 7 -4 7 -11 -1 -21 -7
-8 -11 -21 -10 -28 2 -7 -10 -19 -26 -27 -26 -13 -30 -13 -38 2 -5 9 -19 25
-31 37 -18 17 -20 21 -7 29 13 9 13 10 0 10 -18 0 -63 67 -55 80 4 6 -1 17 -9
26 -15 14 -16 14 -16 -5 0 -15 -5 -19 -17 -15 -15 5 -15 4 -4 -4 11 -8 12 -14
4 -24 -15 -18 -63 -179 -63 -209 0 -14 -3 -29 -6 -32 -4 -4 -8 -19 -9 -34 -1
-16 -6 -43 -9 -60 l-8 -33 115 0 c98 0 116 3 130 18 10 10 17 26 17 35 0 10 6
27 13 38 15 27 77 89 88 89 4 0 14 7 23 15 8 8 22 12 31 8 14 -5 16 -15 12
-49 -3 -26 0 -50 8 -60 6 -9 10 -31 8 -49 -3 -30 -1 -33 34 -39 21 -3 86 -6
146 -6 l107 0 0 54 c0 58 -41 187 -90 286 -55 110 -94 313 -110 563 -6 94 -15
228 -21 297 -6 69 -13 157 -14 197 -2 46 -9 80 -20 97 -13 20 -15 29 -6 40 6
7 8 22 4 32 -6 17 -5 17 10 5 15 -12 17 -11 17 13 0 14 6 26 12 26 7 0 -3 8
-22 18 -18 11 -36 24 -38 30 -5 15 14 16 23 2 12 -20 26 -10 15 11 -7 11 -14
18 -17 15 -4 -3 -12 -1 -20 6 -11 8 -12 7 -8 -5 4 -8 2 -17 -2 -20 -5 -3 -17
19 -26 49 -9 30 -28 73 -43 95 -14 23 -20 38 -14 34 6 -4 32 -39 56 -77 25
-39 48 -67 51 -64 3 3 12 1 20 -5 10 -9 13 -7 13 7 0 153 21 315 57 447 l16
57 39 0 c21 0 93 -13 158 -30 144 -36 261 -39 390 -10 123 27 374 103 450 135
110 46 180 108 180 159 -1 29 -67 159 -185 362 -59 101 -276 384 -367 479
l-47 50 10 68 c16 103 -10 197 -78 277 -27 33 -133 90 -165 90 -11 0 -18 8
-18 19 0 10 -13 33 -28 50 l-28 32 -1 -35 c0 -21 4 -36 11 -36 12 -1 -23 -30
-36 -30 -4 0 -8 22 -8 49 0 40 -4 51 -23 64 -21 14 -23 14 -22 -1 1 -10 6 -25
10 -34 9 -23 -1 -51 -18 -46 -7 3 -13 26 -15 56 -3 43 -6 52 -22 52 -12 0 -21
10 -25 30 -7 31 -25 42 -25 15z m-213 -1787 c-3 -8 -6 -5 -6 6 -1 11 2 17 5
13 3 -3 4 -12 1 -19z m-15 -44 c-5 -29 -13 -30 -30 -4 -16 25 -8 40 16 33 14
-3 18 -11 14 -29z m-14 -429 c-3 -3 -13 7 -23 22 l-17 28 23 -22 c12 -12 20
-25 17 -28z m19 -291 c-3 -3 -12 -4 -19 -1 -8 3 -5 6 6 6 11 1 17 -2 13 -5z"/>
<path d="M2927 3889 c-168 -40 -270 -216 -270 -464 0 -55 5 -120 11 -145 9
-39 8 -54 -13 -117 -14 -40 -28 -91 -31 -113 -4 -22 -10 -40 -15 -40 -14 0
-11 -43 7 -91 9 -24 17 -53 19 -64 1 -11 3 -24 4 -28 0 -5 5 -6 10 -2 5 3 13
0 17 -6 4 -8 3 -9 -4 -5 -19 11 -14 -9 8 -37 25 -32 25 -35 -2 -40 -18 -3 -17
-5 7 -6 41 -1 209 -57 213 -70 2 -6 10 -11 17 -11 8 0 19 -8 24 -17 6 -10 11
-13 11 -8 0 7 41 10 108 10 123 0 132 3 220 92 68 68 112 159 123 259 12 111
20 117 62 49 16 -25 31 -45 34 -45 9 0 -113 192 -163 259 -73 95 -230 155
-377 144 -76 -6 -107 18 -107 83 0 48 32 158 55 192 18 25 37 30 29 7 -5 -13
39 -65 56 -65 3 0 5 13 2 29 -3 23 2 36 24 56 l27 25 -20 88 c-21 94 -23 96
-86 81z m-161 -245 c-16 -65 -25 -125 -30 -224 -2 -35 -8 -66 -14 -68 -9 -3
-22 88 -21 143 2 60 61 226 75 212 3 -3 -2 -31 -10 -63z m14 -352 c0 -10 -41
-35 -47 -28 -9 8 17 36 33 36 8 0 14 -3 14 -8z m168 -202 c-1 -8 2 -21 7 -29
5 -10 4 -16 -3 -19 -7 -2 -12 -8 -12 -13 0 -6 5 -7 10 -4 17 11 11 -15 -9 -36
-19 -21 -44 -21 -91 -2 -41 17 -56 41 -42 64 11 16 9 19 -8 19 -11 0 -20 6
-20 14 0 18 17 30 22 15 2 -6 11 -7 22 -3 19 7 19 8 0 14 -14 6 -9 9 23 14 24
4 46 12 49 18 9 13 55 -32 52 -52z"/>
<path d="M1391 3812 c-33 -11 -63 -30 -77 -47 -19 -25 -25 -27 -39 -15 -11 9
-19 10 -26 3 -7 -7 -22 -8 -45 -1 -28 7 -44 5 -77 -10 -23 -10 -65 -29 -94
-42 -28 -12 -67 -39 -87 -59 -49 -51 -126 -194 -136 -255 -5 -28 -14 -78 -21
-111 -12 -65 -8 -163 10 -207 9 -25 13 -27 36 -16 14 6 25 15 25 20 0 4 5 8
10 8 6 0 24 15 41 33 22 23 26 25 15 7 -26 -41 -19 -67 17 -61 4 0 7 -6 7 -14
0 -8 5 -15 11 -15 5 0 8 4 4 9 -3 5 -1 12 5 16 5 3 10 1 10 -4 0 -17 40 -13
46 4 4 8 12 15 19 15 7 0 15 9 18 20 4 17 2 20 -14 15 -14 -5 -19 -2 -19 10 0
13 -6 16 -25 11 -14 -4 -25 -3 -25 1 1 13 26 43 37 43 5 0 19 17 31 38 19 34
62 83 62 70 0 -2 -9 -24 -21 -47 -11 -24 -18 -45 -16 -48 7 -6 57 27 57 38 0
5 8 9 18 9 16 -1 16 -1 0 -14 -21 -16 -23 -26 -5 -26 19 0 61 -72 62 -108 1
-36 13 -52 41 -54 31 -3 75 12 69 22 -3 5 0 7 8 4 8 -3 21 1 28 8 18 17 82 21
76 5 -6 -17 12 -49 24 -42 5 4 9 0 9 -7 0 -21 49 -68 70 -68 26 0 25 -6 -3
-44 -12 -17 -29 -44 -36 -61 -16 -35 -24 -142 -12 -150 5 -3 21 15 35 40 15
24 37 50 49 57 29 16 65 18 76 4 15 -19 23 -74 12 -81 -6 -3 -11 -21 -11 -38
-1 -54 -47 -169 -80 -199 -17 -16 -27 -28 -24 -28 4 0 -1 -9 -10 -19 -10 -11
-15 -24 -12 -30 4 -5 0 -13 -7 -18 -24 -14 -29 -44 -10 -59 14 -10 16 -15 6
-25 -7 -7 -13 -18 -13 -23 0 -6 7 0 16 13 10 14 20 19 26 13 12 -12 185 53
216 81 25 23 66 89 76 125 6 16 3 22 -9 22 -12 0 -15 6 -10 20 4 12 1 27 -5
35 -6 8 -9 18 -7 22 7 11 -27 175 -47 232 l-16 43 32 -6 c17 -3 32 -7 34 -9
16 -19 79 -180 98 -250 42 -157 90 -282 110 -285 17 -4 18 2 11 60 -8 66 -9
88 -7 125 2 20 5 21 28 13 14 -6 30 -8 35 -4 5 3 9 -1 9 -8 1 -8 4 -7 10 4 7
11 7 26 0 43 -5 14 -10 28 -10 29 0 5 43 18 53 17 4 -1 7 4 7 9 0 6 7 10 16
10 8 0 12 -4 9 -10 -3 -5 -1 -10 4 -10 6 0 11 -9 11 -20 0 -11 5 -20 10 -20
13 0 13 2 -6 65 -13 48 -31 70 -150 192 -74 76 -141 152 -148 168 -29 65 -46
145 -46 211 0 38 -7 94 -15 124 -20 76 -19 94 10 128 33 39 32 76 -2 115 -88
99 -193 202 -229 223 -56 33 -142 40 -213 16z m389 -197 c19 -19 32 -35 29
-35 -3 0 -20 16 -39 35 -19 19 -32 35 -29 35 3 0 20 -16 39 -35z m39 -64 l24
-19 -22 -48 c-17 -35 -25 -44 -31 -33 -8 15 -22 81 -24 116 -2 23 7 21 53 -16z
m-859 -140 c0 -5 3 -18 6 -28 6 -16 5 -16 -9 2 -19 23 -21 35 -7 35 6 0 10 -4
10 -9z m-33 -43 c-3 -8 -6 -5 -6 6 -1 11 2 17 5 13 3 -3 4 -12 1 -19z m134
-25 c-12 -20 -14 -14 -5 12 4 9 9 14 11 11 3 -2 0 -13 -6 -23z m-75 2 c-3 -20
-16 -31 -16 -13 0 13 8 28 16 28 1 0 1 -7 0 -15z m195 -72 c-12 -20 -14 -14
-5 12 4 9 9 14 11 11 3 -2 0 -13 -6 -23z m-121 -18 c0 -8 -4 -15 -10 -15 -5 0
-10 7 -10 15 0 8 5 15 10 15 6 0 10 -7 10 -15z m180 -45 c0 -5 -7 -7 -15 -4
-8 4 -12 10 -9 15 6 11 24 2 24 -11z m514 -29 c19 -16 46 -71 46 -93 0 -15
-37 36 -50 70 -5 12 -15 22 -22 21 -28 -1 -103 -56 -106 -76 -2 -12 -10 -24
-18 -27 -13 -5 -14 0 -9 27 9 46 37 80 76 93 37 13 54 9 83 -15z m-8 -45 c14
-11 19 -26 18 -62 -1 -42 1 -45 12 -29 23 32 26 10 5 -45 -24 -64 -47 -90 -78
-90 -26 0 -63 32 -63 55 0 9 -7 18 -15 21 -20 8 -19 53 0 60 22 9 45 -14 45
-43 0 -38 23 -22 35 24 5 22 16 48 24 57 11 13 11 17 -3 22 -9 3 -23 4 -31 0
-20 -7 -19 3 2 26 19 22 24 22 49 4z m-749 -58 c-3 -8 -6 -5 -6 6 -1 11 2 17
5 13 3 -3 4 -12 1 -19z"/>
<path d="M1770 3546 c0 -2 8 -10 18 -17 15 -13 16 -12 3 4 -13 16 -21 21 -21
13z"/>
<path d="M1730 3000 c0 -5 5 -10 11 -10 5 0 7 5 4 10 -3 6 -8 10 -11 10 -2 0
-4 -4 -4 -10z"/>
<path d="M3360 3436 c0 -9 5 -16 10 -16 6 0 10 4 10 9 0 6 -4 13 -10 16 -5 3
-10 -1 -10 -9z"/>
<path d="M1140 3051 c0 -5 6 -14 14 -20 12 -10 13 -8 9 8 -5 21 -23 30 -23 12z"/>
<path d="M1169 2877 c-119 -68 -137 -95 -75 -111 21 -5 94 10 141 29 18 8 18
7 6 -8 -7 -9 -20 -17 -27 -17 -19 0 -18 -16 2 -24 51 -19 87 4 90 58 1 17 5
38 8 47 6 13 2 16 -19 12 -19 -4 -24 -2 -20 9 4 11 -11 7 -52 -13 -69 -34 -77
-35 -61 -9 7 11 33 28 58 39 25 11 36 20 25 20 -11 0 -45 -15 -76 -32z m66
-56 c-28 -27 -75 -38 -75 -18 0 21 28 36 65 37 29 0 29 0 10 -19z"/>
<path d="M947 2804 c2 -6 22 -19 44 -28 22 -10 44 -27 48 -39 5 -12 10 -16 14
-10 13 21 -4 39 -57 64 -30 13 -52 20 -49 13z"/>
<path d="M2250 2669 c0 -4 4 -10 9 -13 5 -3 27 -37 50 -76 23 -38 46 -70 51
-70 9 0 -15 66 -32 88 -16 18 9 42 46 43 l31 1 -35 9 c-74 19 -120 26 -120 18z"/>
<path d="M1041 2623 c-19 -13 -53 -28 -75 -35 -56 -16 -64 -25 -41 -46 16 -14
17 -14 6 0 -14 19 -11 21 50 37 44 12 110 54 99 64 -3 2 -20 -7 -39 -20z"/>
<path d="M3208 2643 c7 -3 16 -2 19 1 4 3 -2 6 -13 5 -11 0 -14 -3 -6 -6z"/>
<path d="M3470 2639 c13 -6 32 -17 41 -25 15 -13 17 -13 22 5 4 15 -2 20 -25
25 -46 9 -67 6 -38 -5z"/>
<path d="M3586 2643 c-7 -8 68 -45 102 -50 34 -6 17 15 -21 25 -18 5 -31 14
-29 21 2 12 -40 16 -52 4z"/>
<path d="M1244 2595 c4 -11 -9 -25 -45 -47 -31 -20 -48 -37 -45 -45 4 -10 -21
-75 -50 -131 -2 -3 -29 -10 -49 -11 -5 -1 -4 -5 4 -10 12 -8 10 -15 -12 -40
-32 -38 -65 -126 -72 -189 -2 -26 -9 -62 -14 -80 -8 -28 -6 -36 16 -60 l25
-27 -22 33 c-12 17 -20 32 -18 32 2 0 26 -20 52 -45 46 -42 47 -45 32 -67 -9
-12 -26 -28 -38 -35 -21 -11 -19 -12 24 -13 26 0 50 5 53 10 4 6 10 8 15 5 4
-3 4 12 -2 33 -5 20 -10 44 -11 52 -1 8 -8 24 -14 35 -6 11 -14 38 -17 60 l-6
40 20 -40 c11 -22 20 -48 20 -58 0 -10 5 -15 10 -12 6 3 10 0 10 -9 0 -8 5
-16 11 -18 7 -2 7 -12 0 -33 -10 -26 -9 -28 2 -13 13 16 15 16 32 0 18 -16 18
-16 2 10 -11 18 -15 42 -13 73 4 50 15 73 17 34 1 -16 3 -18 6 -7 6 22 26 25
95 14 45 -8 61 -7 71 3 10 11 8 12 -12 6 -14 -4 -21 -3 -18 2 4 6 -4 8 -18 5
-31 -5 -31 1 -2 30 12 13 37 41 55 63 l33 40 19 -25 c21 -27 27 -21 9 8 -8 12
-7 25 2 47 7 17 14 37 15 45 1 8 7 28 13 43 18 47 14 57 -22 57 -23 0 -41 8
-57 25 -18 19 -20 25 -8 25 9 0 18 7 22 15 6 17 -29 22 -39 5 -8 -13 -48 -6
-53 9 -2 6 16 20 40 31 51 23 99 59 79 60 -7 0 -28 -9 -46 -20 -45 -28 -113
-51 -120 -40 -3 5 -1 11 5 15 6 4 8 11 4 16 -3 5 4 25 16 44 22 35 21 65 -1
65 -6 0 -8 -7 -5 -15z m36 -239 c0 -3 -4 -8 -10 -11 -5 -3 -10 -1 -10 4 0 6 5
11 10 11 6 0 10 -2 10 -4z m-207 -93 c-3 -10 -14 -25 -24 -33 -10 -8 -25 -28
-33 -45 -13 -25 -16 -26 -16 -9 0 11 9 29 20 39 11 10 17 22 14 27 -3 5 2 16
12 23 26 19 35 18 27 -2z m138 -42 c-13 -23 -60 -55 -69 -46 -7 7 56 64 71 65
4 0 3 -8 -2 -19z m105 -69 c-21 -40 -34 -49 -91 -57 -37 -5 -47 -4 -39 5 6 6
22 12 35 13 13 1 38 17 56 35 40 40 59 42 39 4z m-236 -6 c0 -3 -4 -8 -10 -11
-5 -3 -10 -1 -10 4 0 6 5 11 10 11 6 0 10 -2 10 -4z m-50 -34 c0 -4 -5 -13
-11 -19 -6 -6 -7 -22 -3 -38 5 -20 9 -23 15 -13 5 7 9 11 9 8 0 -3 7 -26 15
-52 l14 -48 -25 17 c-28 18 -56 65 -50 85 2 7 7 25 10 41 6 24 26 39 26 19z
m83 -49 c-4 -10 -2 -14 4 -10 14 9 26 -38 17 -65 -5 -18 -8 -19 -15 -6 -14 25
-21 98 -9 98 5 0 6 -7 3 -17z m-33 -179 c-7 -7 -21 -14 -32 -14 -18 0 -18 1 4
29 18 22 25 25 31 14 5 -8 4 -20 -3 -29z"/>
<path d="M1051 2566 c-7 -8 -8 -17 -3 -20 6 -3 15 1 21 8 7 8 8 17 3 20 -6 3
-15 -1 -21 -8z"/>
<path d="M1490 2535 c0 -8 5 -15 10 -15 6 0 10 7 10 15 0 8 -4 15 -10 15 -5 0
-10 -7 -10 -15z"/>
<path d="M961 2495 c-44 -26 -70 -51 -71 -70 0 -5 7 0 15 12 8 12 39 35 67 52
29 17 49 31 43 31 -5 0 -30 -12 -54 -25z"/>
<path d="M1047 2472 c-20 -21 -37 -44 -37 -51 0 -6 -4 -9 -10 -6 -6 3 -7 -1
-4 -10 4 -10 2 -14 -8 -10 -12 5 -15 -1 -14 -24 1 -29 19 -39 22 -13 1 7 2 16
3 21 2 16 72 101 83 101 9 0 9 -3 0 -12 -7 -7 -12 -21 -12 -32 0 -14 6 -8 20
18 18 36 19 56 1 56 -4 0 -24 -17 -44 -38z"/>
<path d="M3908 2444 c-10 -19 -18 -39 -18 -43 0 -10 49 -25 70 -22 33 6 41 58
12 84 -28 25 -45 20 -64 -19z"/>
<path d="M1550 2217 c0 -40 40 -218 55 -244 9 -15 13 -19 10 -8 -18 52 -27 92
-40 171 -13 80 -25 119 -25 81z"/>
<path d="M1190 2019 c0 -5 5 -7 10 -4 6 3 10 8 10 11 0 2 -4 4 -10 4 -5 0 -10
-5 -10 -11z"/>
<path d="M1187 1900 c-6 -24 2 -60 14 -60 4 0 5 17 2 38 -7 46 -9 48 -16 22z"/>
<path d="M1075 1829 c-4 -6 -5 -12 -2 -15 2 -3 7 2 10 11 7 17 1 20 -8 4z"/>
<path d="M1200 1707 c0 -6 4 -27 9 -45 11 -38 -10 -118 -38 -149 -16 -17 -47
-73 -127 -235 -21 -43 -42 -78 -46 -78 -4 0 -8 -7 -8 -15 0 -19 -47 -65 -79
-76 -19 -7 -31 -22 -42 -54 -9 -25 -13 -47 -9 -50 4 -2 10 -23 14 -46 4 -23
23 -87 42 -143 19 -56 42 -125 50 -154 8 -30 19 -62 24 -72 5 -10 20 -51 34
-91 27 -82 110 -273 150 -345 14 -26 26 -55 26 -65 0 -11 4 -19 8 -19 5 0 16
-16 25 -35 11 -24 23 -35 38 -35 13 0 19 5 15 12 -3 7 -42 103 -87 213 -105
259 -200 617 -203 760 l-1 90 58 102 c31 55 57 103 57 106 0 19 99 205 105
199 5 -4 5 -1 1 6 -5 8 8 38 32 76 58 93 58 96 8 129 -49 30 -56 32 -56 14z"/>
<path d="M2840 1515 c0 -8 5 -15 10 -15 6 0 10 7 10 15 0 8 -4 15 -10 15 -5 0
-10 -7 -10 -15z"/>
<path d="M2055 1140 l-20 -9 20 0 c11 0 29 4 40 9 l20 9 -20 0 c-11 0 -29 -4
-40 -9z"/>
<path d="M2129 280 c-15 -12 -19 -19 -10 -20 9 0 11 -8 7 -25 -7 -26 6 -33 31
-17 12 7 14 82 2 82 -4 0 -17 -9 -30 -20z"/>
</g>
</svg>
