<?xml version="1.0" encoding="UTF-8" standalone="no"?>
<!DOCTYPE svg PUBLIC "-//W3C//DTD SVG 1.1//EN" "http://www.w3.org/Graphics/SVG/1.1/DTD/svg11.dtd">
<svg width="100%" height="100%" viewBox="0 0 195 50" version="1.1" xmlns="http://www.w3.org/2000/svg" xmlns:xlink="http://www.w3.org/1999/xlink" xml:space="preserve" xmlns:serif="http://www.serif.com/" style="fill-rule:evenodd;clip-rule:evenodd;stroke-linejoin:round;stroke-miterlimit:2;">
    <g transform="matrix(0.121975,0.00511218,-0.00499241,0.119117,1.93825,2.41867)">
        <path d="M633.895,330.937C632.771,326.967 619.104,323.451 616.511,322.862C613.919,322.273 582.332,317.137 582.671,316.921C583.01,316.705 581.547,315.396 579.236,314.627C576.926,313.859 571.114,312.875 568.141,310.697C565.167,308.515 564.456,305.097 560.357,303.836C556.259,302.578 539.627,299.728 539.627,299.728C539.627,299.728 532.325,293.787 505.296,287.377C501.686,284.991 474.468,275.44 444.489,272.948C396.853,260.314 368.72,266.589 366.997,277.917L235.453,254.529C237.084,251.451 216.008,237.905 187.907,229.655C159.339,221.27 139.702,219.726 139.702,219.726C130.186,217.231 97.291,211.3 83.616,214.821C78.882,214.702 63.435,213.529 55.648,216.056C42.075,212.832 39.457,213.227 39.457,213.227C39.457,213.227 34.502,216.374 36.375,218.033C38.247,219.693 33.09,219.719 33.09,219.719L13.639,216.222C13.639,216.222 2.292,214.775 3.035,218.905C3.76,222.927 16.055,225.952 16.055,225.952C16.055,225.952 36.174,229.165 39.759,230.545C43.346,231.93 41.378,236.037 45.999,237.576C50.619,239.113 64.446,242.119 64.446,242.119C64.446,242.119 69.141,246.871 95.202,253.488C116.867,263.319 151.4,269.43 160.689,269.622C180.322,275.856 235.477,283.085 238.436,266.529L374.759,291.31C383.55,304.657 429.699,322.315 464.846,325.183C484.638,330.906 510.136,332.995 518.359,331.727C530.543,334.354 549.766,332.956 550.6,331.658C550.6,331.658 555.639,332.564 557.706,332.833C565.774,334.72 567.447,330.79 569.713,330.84C573.728,330.931 577.325,332.76 579.844,332.988C582.361,333.216 586.734,331.449 584.805,329.827C584.805,329.827 580.86,327.856 582.41,327.888C582.576,327.891 583.326,327.681 584.3,327.83C585.272,327.979 586.468,328.487 588.051,328.748C589.543,328.992 591.366,329.005 593.232,329.32C594.86,329.591 596.494,330.155 598.289,330.458C599.556,330.671 600.014,330.748 601.316,330.967C602.551,331.178 604.744,331.303 606.072,331.527C607.908,331.838 609.735,332.5 611.584,332.83C613.194,333.116 614.789,333.03 616.28,333.275C617.565,333.487 618.771,334.034 619.88,334.206C623.264,334.729 625.64,335.048 625.851,335.045C626.824,335.036 635.018,334.908 633.895,330.937" style="fill:rgb(103,104,103);fill-rule:nonzero;"/>
    </g>
    <g transform="matrix(0.121975,0.00511218,-0.00499241,0.119117,1.93825,2.41867)">
        <path d="M467.535,43.691C457.239,48.353 448.617,55.634 441.804,64.238C438.357,68.504 435.279,73.067 432.57,77.837C429.861,82.607 427.377,87.512 425.235,92.579C420.978,102.713 417.504,113.198 415.011,123.935C412.428,134.636 410.583,145.544 409.728,156.479C409.251,161.96 409.044,167.387 409.188,172.841C409.287,178.412 409.548,183.956 409.818,189.509C410.403,200.597 411.591,211.631 413.445,222.521C414.381,227.957 415.623,233.33 417.063,238.64C418.503,243.959 420.348,249.143 422.589,254.147C426.995,264.357 433.786,273.31 442.748,279.894L442.719,279.894C437.549,277.487 433.099,273.907 429.06,269.933C425.028,265.829 421.689,261.059 418.8,256.082C413.13,246.02 409.431,235.013 406.821,223.889C404.094,212.756 402.69,201.416 401.619,190.094C401.115,184.433 400.827,178.754 400.602,173.084C400.377,167.306 400.593,161.492 401.043,155.759C403.167,132.89 408.846,110.345 419.061,89.717C424.164,79.43 430.572,69.674 438.609,61.394C446.637,53.186 456.555,46.517 467.535,43.691Z" style="fill:url(#_Linear1);fill-rule:nonzero;"/>
    </g>
    <g transform="matrix(0.121975,0.00511218,-0.00499241,0.119117,1.93825,2.41867)">
        <clipPath id="_clip2">
            <path d="M500.205,45.986C489.918,50.657 481.287,57.938 474.483,66.533C471.027,70.799 467.949,75.362 465.249,80.141C462.531,84.902 460.047,89.816 457.905,94.874C453.648,105.008 450.174,115.493 447.69,126.23C445.098,136.931 443.253,147.848 442.398,158.783C441.93,164.255 441.714,169.691 441.867,175.145C441.957,180.707 442.227,186.26 442.488,191.804C443.082,202.892 444.261,213.926 446.115,224.816C447.051,230.261 448.293,235.634 449.733,240.944C451.173,246.254 453.018,251.438 455.259,256.451C459.666,266.661 466.461,275.612 475.421,282.2L475.393,282.2C470.222,279.788 465.774,276.2 461.73,272.228C457.707,268.124 454.359,263.363 451.479,258.377C445.809,248.315 442.11,237.308 439.491,226.184C436.773,215.06 435.36,203.711 434.289,192.398C433.794,186.728 433.506,181.058 433.281,175.388C433.047,169.601 433.263,163.787 433.713,158.063C435.846,135.185 441.516,112.649 451.74,92.012C456.843,81.725 463.251,71.978 471.279,63.689C479.307,55.481 489.225,48.812 500.205,45.986Z"/>
        </clipPath>
        <g clip-path="url(#_clip2)">
            <path d="M500.205,45.986C489.918,50.657 481.287,57.938 474.483,66.533C471.027,70.799 467.949,75.362 465.249,80.141C462.531,84.902 460.047,89.816 457.905,94.874C453.648,105.008 450.174,115.493 447.69,126.23C445.098,136.931 443.253,147.848 442.398,158.783C441.93,164.255 441.714,169.691 441.867,175.145C441.957,180.707 442.227,186.26 442.488,191.804C443.082,202.892 444.261,213.926 446.115,224.816C447.051,230.261 448.293,235.634 449.733,240.944C451.173,246.254 453.018,251.438 455.259,256.451C459.666,266.662 466.461,275.612 475.421,282.2L475.393,282.2C470.223,279.788 465.775,276.2 461.73,272.228C457.707,268.124 454.359,263.363 451.479,258.377C445.809,248.315 442.11,237.308 439.491,226.184C436.773,215.06 435.36,203.711 434.289,192.398C433.794,186.728 433.506,181.058 433.281,175.388C433.047,169.601 433.263,163.787 433.713,158.063C435.846,135.185 441.516,112.649 451.74,92.012C456.843,81.725 463.251,71.978 471.279,63.689C479.307,55.481 489.225,48.812 500.205,45.986Z" style="fill:url(#_Linear3);fill-rule:nonzero;"/>
        </g>
    </g>
    <g transform="matrix(0.121975,0.00511218,-0.00499241,0.119117,1.93825,2.41867)">
        <path d="M533.951,87.905C526.923,91.022 521.227,96.146 516.351,101.984C513.984,104.909 511.869,108.041 510.015,111.317C508.152,114.593 506.451,117.959 504.984,121.433C502.059,128.381 499.674,135.581 497.964,142.943C496.191,150.287 494.931,157.775 494.337,165.281C494.004,169.034 493.842,172.76 493.941,176.504C494.013,180.329 494.22,184.127 494.4,187.943C494.805,195.548 495.624,203.117 496.893,210.587C498.234,218.03 500.061,225.428 503.166,232.295C506.19,239.171 510.681,245.516 517.044,249.989C513.543,248.333 510.357,245.939 507.603,243.122C504.84,240.305 502.545,237.038 500.565,233.618C496.677,226.715 494.139,219.164 492.339,211.532C490.476,203.891 489.513,196.106 488.775,188.339C488.433,184.46 488.253,180.563 488.109,176.666C487.956,172.706 488.082,168.71 488.379,164.786C489.837,149.09 493.734,133.628 500.745,119.462C504.246,112.406 508.647,105.719 514.155,100.031C519.622,94.28 526.36,90.207 533.921,87.905L533.951,87.905Z" style="fill:url(#_Linear4);fill-rule:nonzero;"/>
    </g>
    <g transform="matrix(0.121975,0.00511218,-0.00499241,0.119117,1.93825,2.41867)">
        <clipPath id="_clip5">
            <path d="M633.515,172.193L637.311,172.436C636.762,175.658 636.645,178.988 636.816,182.3C637.099,185.633 636.918,183.98 637.358,187.261L637.358,187.312L633.009,187.025C632.739,185.549 632.55,184.046 632.46,182.543C632.406,179.044 632.309,179.122 632.926,174.752C633.048,173.885 633.317,173.046 633.513,172.193L633.515,172.193Z"/>
        </clipPath>
        <g clip-path="url(#_clip5)">
            <path d="M633.513,172.193L637.311,172.436C636.762,175.658 636.645,178.988 636.816,182.3C637.099,185.633 636.918,183.98 637.358,187.26L637.358,187.312L633.009,187.025C632.739,185.549 632.55,184.046 632.46,182.543C632.289,179.087 632.568,175.577 633.513,172.193Z" style="fill:url(#_Linear6);fill-rule:nonzero;"/>
        </g>
    </g>
    <g transform="matrix(0.121975,0.00511218,-0.00499241,0.119117,1.93825,2.41867)">
        <clipPath id="_clip7">
            <path d="M643.774,161.466C644.144,161.474 643.953,161.466 644.349,161.492C642.855,162.041 641.694,162.896 640.767,163.931L638.229,163.769C639.85,162.258 641.576,161.706 643.719,161.466L643.774,161.466Z"/>
        </clipPath>
        <g clip-path="url(#_clip7)">
            <path d="M643.779,161.466C644.144,161.474 643.954,161.466 644.349,161.492C642.855,162.041 641.694,162.896 640.767,163.931L638.229,163.769C639.85,162.259 641.576,161.706 643.718,161.466L643.779,161.466Z" style="fill:url(#_Linear8);fill-rule:nonzero;"/>
        </g>
    </g>
    <g transform="matrix(0.121975,0.00511218,-0.00499241,0.119117,1.93825,2.41867)">
        <clipPath id="_clip9">
            <path d="M633.694,189.986L637.896,190.265C638.166,191.525 638.472,192.785 638.859,194.018C640.002,197.957 642.029,201.461 644.893,204.372L644.886,204.372C642.743,203.741 641.028,202.285 639.435,200.786C637.923,199.166 636.654,197.294 635.682,195.305C634.191,191.817 634.854,193.59 633.694,189.989L633.694,189.986Z"/>
        </clipPath>
        <g clip-path="url(#_clip9)">
            <path d="M633.694,189.986L637.896,190.265C638.166,191.525 638.472,192.785 638.859,194.018C640.002,197.956 642.029,201.461 644.893,204.372L644.885,204.372C642.743,203.741 641.028,202.284 639.435,200.786C637.923,199.166 636.654,197.294 635.682,195.305C634.191,191.817 634.854,193.59 633.694,189.989L633.694,189.986Z" style="fill:url(#_Linear10);fill-rule:nonzero;"/>
        </g>
    </g>
    <g transform="matrix(0.121975,0.00511218,-0.00499241,0.119117,1.93825,2.41867)">
        <path d="M621.015,189.145L624.999,189.41C625.143,189.959 625.278,190.517 625.449,191.066C626.592,195.007 628.623,198.512 631.488,201.425C629.34,200.8 627.627,199.336 626.034,197.834C624.513,196.214 623.244,194.342 622.272,192.353C621.322,190.237 621.766,191.306 620.942,189.145L621.015,189.145Z" style="fill:url(#_Linear11);fill-rule:nonzero;"/>
    </g>
    <g transform="matrix(0.121975,0.00511218,-0.00499241,0.119117,1.93825,2.41867)">
        <clipPath id="_clip12">
            <path d="M619.71,171.273L623.613,171.536C623.325,174.11 623.271,176.738 623.406,179.348C623.854,184.103 623.551,181.736 624.315,186.448L624.315,186.449L620.049,186.17C619.509,184.01 619.185,181.805 619.05,179.591C618.859,176.802 619.159,174.021 619.607,171.273L619.71,171.273Z"/>
        </clipPath>
        <g clip-path="url(#_clip12)">
            <path d="M619.71,171.273L623.613,171.536C623.325,174.11 623.271,176.738 623.406,179.348C623.55,181.733 623.856,184.109 624.315,186.449L620.049,186.17C619.509,184.01 619.185,181.805 619.05,179.591C618.859,176.802 619.159,174.021 619.607,171.273L619.71,171.273Z" style="fill:url(#_Linear13);fill-rule:nonzero;"/>
        </g>
    </g>
    <g transform="matrix(0.121975,0.00511218,-0.00499241,0.119117,1.93825,2.41867)">
        <clipPath id="_clip14">
            <path d="M630.323,158.513C630.732,158.522 630.527,158.513 630.939,158.54C628.696,159.292 627.228,161.035 625.991,162.956L625.944,162.956L623.127,162.77C623.622,162.086 624.162,161.429 624.783,160.844C626.416,159.311 628.153,158.756 630.317,158.513L630.323,158.513Z"/>
        </clipPath>
        <g clip-path="url(#_clip14)">
            <path d="M630.318,158.513C630.525,158.513 630.732,158.522 630.939,158.54C628.696,159.292 627.228,161.035 625.991,162.956L625.942,162.956L623.127,162.77C623.622,162.086 624.162,161.429 624.783,160.844C626.313,159.431 628.356,158.513 630.318,158.513Z" style="fill:url(#_Linear15);fill-rule:nonzero;"/>
        </g>
    </g>
    <g transform="matrix(0.121975,0.00511218,-0.00499241,0.119117,1.93825,2.41867)">
        <path d="M618.04,156.873L618.339,156.893C615.657,157.874 614.037,159.827 612.975,162.095L609.971,161.897L609.971,161.894C611.334,160.009 610.597,160.909 612.183,159.197C613.792,157.69 615.517,157.113 617.655,156.873L618.04,156.873Z" style="fill:url(#_Linear16);fill-rule:nonzero;"/>
    </g>
    <g transform="matrix(0.121975,0.00511218,-0.00499241,0.119117,1.93825,2.41867)">
        <clipPath id="_clip17">
            <path d="M608.809,188.34L612.624,188.591C612.705,188.861 612.759,189.149 612.849,189.419C614.055,193.19 615.738,196.853 618.888,199.778C616.818,199.148 614.982,197.78 613.434,196.196C611.913,194.567 610.653,192.695 609.672,190.706C608.96,189.14 609.297,189.928 608.659,188.34L608.809,188.34Z"/>
        </clipPath>
        <g clip-path="url(#_clip17)">
            <path d="M608.807,188.34L612.624,188.591C612.705,188.861 612.759,189.149 612.849,189.419C614.055,193.19 615.738,196.853 618.888,199.778C616.818,199.148 614.982,197.78 613.434,196.196C611.913,194.567 610.653,192.695 609.672,190.706C608.96,189.14 609.297,189.928 608.659,188.34L608.807,188.34Z" style="fill:url(#_Linear18);fill-rule:nonzero;"/>
        </g>
    </g>
    <g transform="matrix(0.121975,0.00511218,-0.00499241,0.119117,1.93825,2.41867)">
        <clipPath id="_clip19">
            <path d="M606.918,170.423L610.932,170.69C610.716,173.012 610.68,175.37 610.806,177.701C611.327,183.006 610.968,180.371 611.882,185.607L611.882,185.628L611.856,185.628L607.674,185.351C607.008,182.93 606.603,180.446 606.45,177.953C606.287,175.432 606.521,172.916 606.873,170.423L606.918,170.423Z"/>
        </clipPath>
        <g clip-path="url(#_clip19)">
            <path d="M606.918,170.423L610.932,170.69C610.716,173.012 610.68,175.37 610.806,177.701C611.327,183.006 610.968,180.371 611.882,185.607L611.882,185.628L611.854,185.628L607.674,185.351C607.008,182.93 606.603,180.446 606.45,177.953C606.287,175.432 606.521,172.916 606.873,170.423L606.918,170.423Z" style="fill:url(#_Linear20);fill-rule:nonzero;"/>
        </g>
    </g>
    <g transform="matrix(0.121975,0.00511218,-0.00499241,0.119117,1.93825,2.41867)">
        <clipPath id="_clip21">
            <path d="M595.281,169.655L599.295,169.916C599.016,172.472 598.971,175.064 599.097,177.647C599.563,182.458 599.252,180.066 600.029,184.822L600.029,184.842L599.959,184.842L595.767,184.559C595.218,182.372 594.885,180.14 594.75,177.89C594.606,175.154 594.75,172.373 595.281,169.655Z"/>
        </clipPath>
        <g clip-path="url(#_clip21)">
            <path d="M595.281,169.655L599.295,169.916C599.016,172.472 598.971,175.064 599.097,177.647C599.563,182.458 599.252,180.066 600.029,184.822L600.029,184.842L599.959,184.842L595.767,184.559C595.218,182.372 594.885,180.14 594.75,177.89C594.606,175.154 594.75,172.373 595.281,169.655Z" style="fill:url(#_Linear22);fill-rule:nonzero;"/>
        </g>
    </g>
    <g transform="matrix(0.121975,0.00511218,-0.00499241,0.119117,1.93825,2.41867)">
        <clipPath id="_clip23">
            <path d="M596.673,187.53L600.717,187.799C600.852,188.321 600.978,188.852 601.14,189.365C602.355,193.136 604.038,196.799 607.179,199.715C605.109,199.085 603.273,197.726 601.725,196.142C600.204,194.513 598.944,192.641 597.963,190.652C597.036,188.595 597.47,189.634 596.66,187.534L596.66,187.53L596.673,187.53Z"/>
        </clipPath>
        <g clip-path="url(#_clip23)">
            <path d="M596.672,187.53L600.717,187.799C600.852,188.321 600.978,188.852 601.14,189.365C602.355,193.136 604.038,196.799 607.179,199.715C605.109,199.085 603.273,197.726 601.725,196.142C600.204,194.513 598.944,192.641 597.963,190.652C597.036,188.595 597.47,189.634 596.66,187.534L596.66,187.53L596.672,187.53Z" style="fill:url(#_Linear24);fill-rule:nonzero;"/>
        </g>
    </g>
    <g transform="matrix(0.121975,0.00511218,-0.00499241,0.119117,1.93825,2.41867)">
        <clipPath id="_clip25">
            <path d="M606.333,156.819L606.63,156.838L606.63,156.843C604.352,157.608 602.873,159.384 601.626,161.339L598.755,161.15C599.268,160.439 599.826,159.755 600.474,159.143C602.086,157.633 603.815,157.058 605.955,156.819L606.333,156.819Z"/>
        </clipPath>
        <g clip-path="url(#_clip25)">
            <path d="M606.333,156.819L606.63,156.838L606.63,156.843C604.353,157.608 602.873,159.384 601.626,161.339L598.755,161.15C599.268,160.439 599.826,159.755 600.474,159.143C602.086,157.633 603.815,157.058 605.955,156.819L606.333,156.819Z" style="fill:url(#_Linear26);fill-rule:nonzero;"/>
        </g>
    </g>
    <g transform="matrix(0.121975,0.00511218,-0.00499241,0.119117,1.93825,2.41867)">
        <clipPath id="_clip27">
            <path d="M583.236,186.639L587.199,186.908C587.289,187.205 587.352,187.511 587.442,187.817C588.657,191.588 590.34,195.251 593.481,198.167C591.411,197.537 589.575,196.169 588.027,194.585C586.515,192.956 585.246,191.093 584.274,189.104C583.533,187.476 583.883,188.297 583.222,186.64L583.222,186.639L583.236,186.639Z"/>
        </clipPath>
        <g clip-path="url(#_clip27)">
            <path d="M583.237,186.639L587.199,186.908C587.289,187.205 587.352,187.511 587.442,187.817C588.657,191.588 590.34,195.251 593.481,198.167C591.411,197.537 589.575,196.169 588.027,194.585C586.515,192.956 585.246,191.093 584.274,189.104C583.533,187.476 583.883,188.297 583.222,186.64L583.222,186.639L583.237,186.639Z" style="fill:url(#_Linear28);fill-rule:nonzero;"/>
        </g>
    </g>
    <g transform="matrix(0.121975,0.00511218,-0.00499241,0.119117,1.93825,2.41867)">
        <clipPath id="_clip29">
            <path d="M581.484,168.746L585.534,169.016C585.318,171.356 585.282,173.732 585.399,176.099C585.923,181.351 585.567,178.741 586.467,183.929L586.467,183.945L586.44,183.945L582.249,183.668C581.601,181.274 581.205,178.808 581.052,176.342C580.926,173.813 581.043,171.257 581.484,168.746Z"/>
        </clipPath>
        <g clip-path="url(#_clip29)">
            <path d="M581.484,168.746L585.534,169.016C585.318,171.356 585.282,173.732 585.399,176.099C585.923,181.352 585.567,178.741 586.467,183.93L586.467,183.945L586.44,183.945L582.249,183.668C581.601,181.274 581.205,178.808 581.052,176.342C580.926,173.813 581.043,171.257 581.484,168.746Z" style="fill:url(#_Linear30);fill-rule:nonzero;"/>
        </g>
    </g>
    <g transform="matrix(0.121975,0.00511218,-0.00499241,0.119117,1.93825,2.41867)">
        <clipPath id="_clip31">
            <path d="M592.691,155.271L592.936,155.291L592.936,155.293C590.406,156.146 588.87,158.185 587.604,160.412L584.616,160.214C585.228,159.269 585.948,158.378 586.785,157.595C588.329,156.13 590.106,155.505 592.178,155.271L592.691,155.271Z"/>
        </clipPath>
        <g clip-path="url(#_clip31)">
            <path d="M592.691,155.271L592.936,155.291L592.936,155.293C590.406,156.146 588.87,158.185 587.604,160.412L584.616,160.214C585.228,159.269 585.948,158.378 586.785,157.595C588.329,156.13 590.106,155.505 592.178,155.271L592.691,155.271Z" style="fill:url(#_Linear32);fill-rule:nonzero;"/>
        </g>
    </g>
    <g transform="matrix(0.121975,0.00511218,-0.00499241,0.119117,1.93825,2.41867)">
        <clipPath id="_clip33">
            <path d="M567.654,167.824L571.701,168.089C571.575,170.051 571.584,172.031 571.683,174.002C571.872,177.044 572.295,180.086 572.997,183.056L568.884,182.777C568.011,180.005 567.507,177.134 567.336,174.245C567.3,169.959 567.219,172.099 567.579,167.824L567.654,167.824Z"/>
        </clipPath>
        <g clip-path="url(#_clip33)">
            <path d="M567.655,167.824L571.701,168.089C571.575,170.051 571.584,172.031 571.683,174.002C571.872,177.044 572.295,180.086 572.997,183.056L568.884,182.777C568.011,180.005 567.507,177.134 567.336,174.245C567.3,169.959 567.219,172.099 567.579,167.824L567.655,167.824Z" style="fill:url(#_Linear34);fill-rule:nonzero;"/>
        </g>
    </g>
    <g transform="matrix(0.121975,0.00511218,-0.00499241,0.119117,1.93825,2.41867)">
        <clipPath id="_clip35">
            <path d="M578.929,153.175L579.225,153.194C576.12,154.328 574.428,156.758 573.384,159.467L570.231,159.26L570.231,159.25C570.962,157.847 571.972,156.633 573.06,155.498C574.663,153.991 576.39,153.414 578.524,153.175L578.929,153.175Z"/>
        </clipPath>
        <g clip-path="url(#_clip35)">
            <path d="M578.93,153.175L579.225,153.194C576.12,154.328 574.428,156.758 573.384,159.467L570.231,159.26L570.231,159.25C570.962,157.847 571.972,156.633 573.06,155.498C574.662,153.991 576.39,153.414 578.523,153.175L578.93,153.175Z" style="fill:url(#_Linear36);fill-rule:nonzero;"/>
        </g>
    </g>
    <g transform="matrix(0.121975,0.00511218,-0.00499241,0.119117,1.93825,2.41867)">
        <clipPath id="_clip37">
            <path d="M570.082,185.771L573.825,186.017C575.031,189.689 576.705,193.226 579.765,196.07C577.695,195.449 575.859,194.081 574.311,192.488C572.79,190.868 571.53,188.996 570.549,187.007C570.165,186.183 570.35,186.596 569.994,185.771L570.082,185.771Z"/>
        </clipPath>
        <g clip-path="url(#_clip37)">
            <path d="M570.084,185.771L573.825,186.017C575.031,189.689 576.705,193.226 579.765,196.07C577.695,195.449 575.859,194.081 574.311,192.488C572.79,190.868 571.53,188.996 570.549,187.007C570.165,186.184 570.35,186.596 569.994,185.771L570.084,185.771Z" style="fill:url(#_Linear38);fill-rule:nonzero;"/>
        </g>
    </g>
    <g transform="matrix(0.121975,0.00511218,-0.00499241,0.119117,1.93825,2.41867)">
        <clipPath id="_clip39">
            <path d="M552.296,197.503C550.918,201.905 549.67,206.343 548.562,210.82L547.585,210.82L529.122,210.803C529.329,206.132 530.976,201.038 532.272,198.122L532.317,198.014L552.215,197.503L552.296,197.503Z"/>
        </clipPath>
        <g clip-path="url(#_clip39)">
            <path d="M552.296,197.503C550.918,201.905 549.67,206.343 548.562,210.82L547.585,210.82L529.122,210.803C529.329,206.132 530.976,201.038 532.272,198.122L532.317,198.014L552.219,197.503L552.296,197.503Z" style="fill:url(#_Linear40);fill-rule:nonzero;"/>
        </g>
    </g>
    <g transform="matrix(0.121975,0.00511218,-0.00499241,0.119117,1.93825,2.41867)">
        <clipPath id="_clip41">
            <path d="M569.674,126.257L569.674,126.26C567.552,129.387 563.772,130.12 560.316,130.856C558.786,131.171 556.365,132.818 554.178,135.536L534.385,136.542L534.011,136.542C535.413,135.163 534.675,135.842 536.232,134.51C539.499,131.873 542.415,129.515 544.953,127.346L569.674,126.257Z"/>
        </clipPath>
        <g clip-path="url(#_clip41)">
            <path d="M569.674,126.257L569.674,126.26C567.552,129.387 563.772,130.12 560.316,130.856C558.786,131.171 556.365,132.818 554.178,135.536L534.386,136.542L534.011,136.542C535.413,135.163 534.675,135.842 536.232,134.51C539.499,131.873 542.415,129.515 544.953,127.346L569.674,126.257Z" style="fill:url(#_Linear42);fill-rule:nonzero;"/>
        </g>
    </g>
    <g transform="matrix(0.121975,0.00511218,-0.00499241,0.119117,1.93825,2.41867)">
        <clipPath id="_clip43">
            <path d="M550.236,143.017C548.529,148.81 549.26,153.664 551.253,159.251C552.819,163.13 553.926,165.38 554.673,167.774L536.475,168.053C532.65,159.26 528.366,151.286 529.878,144.041L550.196,143.017L550.236,143.017Z"/>
        </clipPath>
        <g clip-path="url(#_clip43)">
            <path d="M550.236,143.017C548.529,148.81 549.26,153.664 551.253,159.251C552.819,163.13 553.926,165.38 554.673,167.774L536.475,168.053C532.65,159.26 528.366,151.286 529.878,144.041L550.194,143.017L550.236,143.017Z" style="fill:url(#_Linear44);fill-rule:nonzero;"/>
        </g>
    </g>
    <g transform="matrix(0.121975,0.00511218,-0.00499241,0.119117,1.93825,2.41867)">
        <path d="M565.14,228.722C567.336,233.384 568.686,246.299 574.131,246.821L556.005,245.741C556.005,245.741 548.832,238.676 550.911,230.657C551.658,230.594 551.793,230.117 551.46,229.424L565.14,228.722Z" style="fill:url(#_Linear45);fill-rule:nonzero;"/>
    </g>
    <g transform="matrix(0.121975,0.00511218,-0.00499241,0.119117,1.93825,2.41867)">
        <clipPath id="_clip46">
            <path d="M555.871,175.044C555.974,176.783 556.016,178.524 556.03,180.266L556.03,181.934C555.92,184.744 555.144,187.476 554.448,190.184L535.476,190.67C537.357,185.855 538.86,180.554 538.428,175.289L554.254,175.044L555.871,175.044Z"/>
        </clipPath>
        <g clip-path="url(#_clip46)">
            <path d="M555.871,175.044C555.974,176.782 556.016,178.524 556.03,180.266L556.03,181.934C555.92,184.744 555.144,187.476 554.448,190.184L535.476,190.67C537.357,185.855 538.86,180.554 538.428,175.289L554.261,175.044L555.871,175.044Z" style="fill:url(#_Linear47);fill-rule:nonzero;"/>
        </g>
    </g>
    <g transform="matrix(0.121975,0.00511218,-0.00499241,0.119117,1.93825,2.41867)">
        <clipPath id="_clip48">
            <path d="M581.767,100.315C579.37,100.635 577.784,102.381 576.372,104.18L558.75,105.287C561.072,102.929 565.014,101.651 570.72,100.832L581.686,100.315L581.767,100.315Z"/>
        </clipPath>
        <g clip-path="url(#_clip48)">
            <path d="M581.766,100.315C579.369,100.635 577.783,102.382 576.372,104.18L558.75,105.287C561.072,102.929 565.014,101.651 570.72,100.832L581.684,100.315L581.766,100.315Z" style="fill:url(#_Linear49);fill-rule:nonzero;"/>
        </g>
    </g>
    <g transform="matrix(0.121975,0.00511218,-0.00499241,0.119117,1.93825,2.41867)">
        <clipPath id="_clip50">
            <path d="M538.967,218.075L547.419,218.084C547.347,219.416 547.392,220.613 547.599,221.63C547.644,221.891 547.734,222.107 547.797,222.341L541.623,222.656C539.796,221.972 537.816,221.423 535.728,221.135C533.587,220.878 531.855,219.809 530.613,218.075L538.967,218.075Z"/>
        </clipPath>
        <g clip-path="url(#_clip50)">
            <path d="M539.059,218.075L547.419,218.084C547.347,219.416 547.392,220.613 547.599,221.63C547.644,221.891 547.734,222.107 547.797,222.341L541.623,222.656C539.796,221.972 537.816,221.423 535.728,221.135C533.588,220.878 531.855,219.809 530.614,218.075L539.059,218.075Z" style="fill:url(#_Linear51);fill-rule:nonzero;"/>
        </g>
    </g>
    <g transform="matrix(0.121975,0.00511218,-0.00499241,0.119117,1.93825,2.41867)">
        <path d="M573.158,111.659L573.158,111.663C572.47,114.038 572.015,116.47 571.593,118.904L552.734,119.732L552.734,119.725C554.484,117.711 555.553,115.301 556.149,112.73L573.158,111.659Z" style="fill:url(#_Linear52);fill-rule:nonzero;"/>
    </g>
    <g transform="matrix(0.121975,0.00511218,-0.00499241,0.119117,1.93825,2.41867)">
        <path d="M202.554,15.036L202.554,15.037C196.671,15.795 190.987,17.499 185.412,19.463C179.94,21.587 174.747,24.386 170.058,27.842C160.608,34.709 153.174,43.961 147.387,54.032C141.645,64.166 137.334,75.11 134.13,86.387C132.528,92.03 131.106,97.727 129.9,103.487C129.306,106.376 128.739,109.265 128.199,112.181C127.632,115.115 127.227,117.869 126.894,120.767C125.652,132.278 126.147,144.05 127.902,155.57C129.594,167.108 132.843,178.421 137.685,188.987C142.599,199.49 149.358,209.246 158.385,216.635C162.867,220.352 167.934,223.376 173.316,225.698C178.716,228.02 184.449,229.613 190.326,230.594C184.386,230.225 178.446,229.154 172.74,227.201C167.034,225.266 161.589,222.44 156.648,218.903C151.734,215.312 147.333,211.028 143.481,206.303C139.629,201.578 136.398,196.385 133.617,190.976C128.037,180.149 124.554,168.377 122.466,156.452C120.486,144.491 119.91,132.296 121.125,120.137C121.485,117.131 121.98,114.008 122.565,111.11C123.132,108.176 123.726,105.242 124.356,102.308C125.652,96.44 127.083,90.581 128.874,84.821C132.465,73.328 137.046,62.006 143.508,51.71C149.88,41.405 158.205,32.09 168.456,25.493C173.586,22.244 179.121,19.67 184.89,17.951C190.611,16.124 196.593,15.464 202.554,15.036Z" style="fill:url(#_Linear53);fill-rule:nonzero;"/>
    </g>
    <g transform="matrix(0.121975,0.00511218,-0.00499241,0.119117,1.93825,2.41867)">
        <path d="M153.11,10.61L153.11,10.611C143.226,14.535 135.18,21.436 128.181,29.273C121.449,37.247 116.058,46.274 111.603,55.706C107.157,65.147 103.539,75.002 100.668,85.055C97.815,95.09 95.511,105.359 94.413,115.646C94.152,118.202 93.945,120.767 93.936,123.251L93.972,125.096L94.089,127.058L94.341,130.991C94.701,136.22 95.232,141.44 95.862,146.651C97.086,157.064 99.003,167.387 101.649,177.494C104.394,187.565 107.949,197.465 113.223,206.456C118.4,215.661 125.841,223.302 135.039,228.465L135.036,228.465C130.003,226.562 125.534,223.56 121.431,220.127C117.345,216.617 113.862,212.423 110.811,207.986C104.763,199.022 100.488,189.005 97.293,178.763C94.044,168.512 91.974,157.955 90.408,147.371C89.643,142.07 89.112,136.742 88.68,131.414L88.383,127.418L88.257,125.42L88.185,123.287C88.185,120.47 88.365,117.743 88.644,115.034C89.913,104.252 92.289,93.767 95.412,83.489C98.661,73.265 102.495,63.185 107.562,53.69C112.503,44.15 118.623,35.141 126.093,27.356C133.591,19.486 142.786,13.872 153.11,10.61Z" style="fill:url(#_Linear54);fill-rule:nonzero;"/>
    </g>
    <g transform="matrix(0.121975,0.00511218,-0.00499241,0.119117,1.93825,2.41867)">
        <clipPath id="_clip55">
            <path d="M81.3,61.475C79.296,63.187 77.839,65.403 76.449,67.613C75.126,69.863 73.956,72.203 72.966,74.624C70.896,79.412 69.249,84.389 67.863,89.429C65.127,99.509 63.39,109.859 62.616,120.263C61.788,130.667 62.04,141.152 63.471,151.493C64.182,156.659 65.271,161.78 66.738,166.793C68.096,171.87 70.147,176.716 72.292,181.5L72.29,181.5C70.391,178.484 68.836,175.274 67.35,172.04C67.143,171.563 66.927,171.095 66.72,170.618C64.209,164.615 62.373,158.288 61.23,151.853C60.249,146.624 59.727,141.314 59.448,136.004C59.196,130.676 59.358,125.357 59.727,120.047C60.564,109.445 62.463,98.915 65.703,88.781C67.305,83.714 69.267,78.755 71.688,74.012C72.894,71.645 74.28,69.359 75.81,67.19C77.276,64.95 79.199,63.104 81.3,61.475Z"/>
        </clipPath>
        <g clip-path="url(#_clip55)">
            <path d="M81.3,61.475C79.311,63.212 77.79,65.372 76.449,67.613C75.126,69.863 73.956,72.203 72.966,74.624C70.896,79.412 69.249,84.389 67.863,89.429C65.127,99.509 63.39,109.859 62.616,120.263C61.788,130.667 62.04,141.152 63.471,151.493C64.182,156.659 65.271,161.78 66.738,166.793C68.096,171.87 70.147,176.716 72.292,181.5L72.29,181.5C70.391,178.484 68.836,175.274 67.35,172.04C67.143,171.563 66.927,171.095 66.72,170.618C64.209,164.615 62.373,158.288 61.23,151.853C60.249,146.624 59.727,141.314 59.448,136.004C59.196,130.676 59.358,125.357 59.727,120.047C60.564,109.445 62.463,98.915 65.703,88.781C67.305,83.714 69.267,78.755 71.688,74.012C72.894,71.645 74.28,69.359 75.81,67.19C77.331,65.021 79.113,62.96 81.3,61.475Z" style="fill:url(#_Linear56);fill-rule:nonzero;"/>
        </g>
    </g>
    <g transform="matrix(0.121975,0.00511218,-0.00499241,0.119117,1.93825,2.41867)">
        <path d="M50.724,87.465C48.637,89.927 47.081,92.756 45.705,95.657C44.481,98.555 43.662,101.588 43.383,104.675C43.05,107.753 43.275,110.876 43.941,113.945C44.625,117.014 45.813,120.002 47.316,122.981C44.85,120.731 42.942,117.815 41.772,114.584C40.575,111.362 40.179,107.834 40.494,104.387C40.854,100.949 41.916,97.574 43.689,94.622C45.395,91.654 47.826,89.266 50.71,87.465L50.724,87.465Z" style="fill:url(#_Linear57);fill-rule:nonzero;"/>
    </g>
    <g transform="matrix(0.121975,0.00511218,-0.00499241,0.119117,1.93825,2.41867)">
        <clipPath id="_clip58">
            <path d="M28.407,84.569C25.977,87.053 24.735,90.14 23.88,93.29C23.079,96.467 22.665,99.752 22.611,103.037L22.593,105.512L22.737,107.978C22.854,109.616 23.088,111.254 23.376,112.874C23.909,116.203 25.232,119.277 26.894,122.178L26.892,122.178C23.931,120.053 22.444,116.737 21.18,113.441C20.082,110.066 19.632,106.511 19.704,102.974C19.83,99.446 20.397,95.891 21.738,92.579C23.034,89.321 25.212,86.072 28.407,84.569Z"/>
        </clipPath>
        <g clip-path="url(#_clip58)">
            <path d="M28.407,84.569C25.977,87.053 24.735,90.14 23.88,93.29C23.079,96.467 22.665,99.752 22.611,103.037L22.593,105.512L22.737,107.978C22.854,109.616 23.088,111.254 23.376,112.874C23.909,116.204 25.232,119.277 26.894,122.178L26.893,122.178C23.931,120.053 22.444,116.737 21.18,113.441C20.082,110.066 19.632,106.511 19.704,102.974C19.83,99.446 20.397,95.891 21.738,92.579C23.034,89.321 25.212,86.072 28.407,84.569Z" style="fill:url(#_Linear59);fill-rule:nonzero;"/>
        </g>
    </g>
    <g transform="matrix(0.121975,0.00511218,-0.00499241,0.119117,1.93825,2.41867)">
        <clipPath id="_clip60">
            <path d="M39.314,86.315C36.771,88.307 35.45,91.196 34.41,94.163C33.582,97.124 33.258,100.238 33.294,103.37C33.294,106.502 33.609,109.661 34.14,112.784C34.428,114.341 34.743,115.898 35.211,117.419C35.67,118.931 36.174,120.452 37.191,121.757C35.715,120.92 34.743,119.408 33.897,117.977C33.078,116.492 32.439,114.926 31.935,113.324C30.854,110.131 30.55,106.765 30.398,103.421L30.398,103.334C30.538,100.004 30.43,99.883 31.405,95.808C31.605,94.971 31.992,94.189 32.286,93.38C33.642,90.127 36.038,87.633 39.301,86.315L39.314,86.315Z"/>
        </clipPath>
        <g clip-path="url(#_clip60)">
            <path d="M39.314,86.315C36.771,88.307 35.45,91.196 34.41,94.163C33.582,97.124 33.258,100.238 33.294,103.37C33.294,106.502 33.609,109.661 34.14,112.784C34.428,114.341 34.743,115.898 35.211,117.419C35.67,118.931 36.174,120.452 37.191,121.757C35.715,120.92 34.743,119.408 33.897,117.977C33.078,116.492 32.439,114.926 31.935,113.324C30.854,110.132 30.55,106.766 30.398,103.423L30.398,103.331C30.538,100.003 30.431,99.883 31.405,95.808C31.605,94.971 31.992,94.189 32.286,93.38C33.642,90.127 36.038,87.633 39.301,86.315L39.314,86.315Z" style="fill:url(#_Linear61);fill-rule:nonzero;"/>
        </g>
    </g>
    <g transform="matrix(0.121975,0.00511218,-0.00499241,0.119117,1.93825,2.41867)">
        <clipPath id="_clip62">
            <path d="M212.841,98.001C206.776,100.019 202.066,104.125 198.732,109.49C197.202,112.181 196.113,115.088 195.294,118.103C194.421,121.064 194.16,124.169 194.079,127.283C193.872,133.502 194.538,139.793 195.951,145.859C196.689,148.883 197.652,151.889 199.218,154.553C199.992,155.885 200.928,157.145 202.188,158.045C203.421,158.945 205.014,159.377 206.58,159.116C205.05,159.539 203.34,159.233 201.972,158.36C200.595,157.514 199.506,156.254 198.615,154.931C196.851,152.231 195.753,149.189 194.871,146.138C193.998,143.078 193.467,139.928 193.098,136.769C192.729,133.61 192.558,130.433 192.63,127.238C192.756,124.061 193.071,120.83 194.025,117.743C194.916,114.701 196.032,111.632 197.778,108.923C199.488,106.205 201.648,103.748 204.267,101.894C206.828,100.016 209.806,98.894 212.823,98.001L212.841,98.001Z"/>
        </clipPath>
        <g clip-path="url(#_clip62)">
            <path d="M212.841,98.001C206.776,100.019 202.066,104.125 198.732,109.49C197.202,112.181 196.113,115.088 195.294,118.103C194.421,121.064 194.16,124.169 194.079,127.283C193.872,133.502 194.538,139.793 195.951,145.859C196.689,148.883 197.652,151.889 199.218,154.553C199.992,155.885 200.928,157.145 202.188,158.045C203.421,158.945 205.014,159.377 206.58,159.116C205.05,159.539 203.34,159.233 201.972,158.36C200.595,157.514 199.506,156.254 198.615,154.931C196.851,152.231 195.753,149.189 194.871,146.138C193.998,143.078 193.467,139.928 193.098,136.769C192.729,133.61 192.558,130.433 192.63,127.238C192.756,124.061 193.071,120.83 194.025,117.743C194.916,114.701 196.032,111.632 197.778,108.923C199.488,106.205 201.648,103.748 204.267,101.894C206.828,100.015 209.806,98.894 212.824,98.001L212.841,98.001Z" style="fill:url(#_Linear63);fill-rule:nonzero;"/>
        </g>
    </g>
    <g transform="matrix(0.121975,0.00511218,-0.00499241,0.119117,1.93825,2.41867)">
        <path d="M208.612,37.641C213.345,38.275 217.695,40.216 221.646,42.827C225.624,45.527 228.981,49.01 231.807,52.835C237.477,60.494 241.149,69.395 243.723,78.467C246.279,87.566 247.719,96.962 248.223,106.394C248.367,108.86 248.43,111.344 248.448,113.819L389.44,130.514L389.44,131.839L388.911,136.301L248.367,119.66C248.214,124.673 247.836,129.677 247.242,134.654C247.791,129.668 248.142,124.655 248.259,119.642L227.64,117.203C227.82,122.225 227.595,127.274 226.992,132.251C227.559,127.256 227.739,122.216 227.523,117.185L204.762,114.494L205.446,108.725L227.082,111.29C226.614,107.132 225.822,103.019 224.67,98.996C223.104,93.65 220.845,88.448 217.47,84.002C214.185,79.583 209.37,76.001 203.826,75.371C198.282,74.732 192.81,77.126 188.616,80.672C184.35,84.218 180.984,88.763 178.257,93.596C172.839,103.334 169.797,114.269 168.501,125.312C167.169,136.346 167.574,147.695 170.562,158.432C172.083,163.769 174.297,168.971 177.618,173.417C180.867,177.854 185.628,181.454 191.163,182.129C196.698,182.813 202.215,180.455 206.454,176.927C210.765,173.399 214.185,168.863 216.957,164.03C217.632,162.833 218.271,161.627 218.883,160.394C219.243,159.665 219.567,158.918 219.9,158.171C222.186,153.122 223.932,147.821 225.183,142.394C218.397,141.44 211.602,140.468 204.825,139.46C211.665,140.198 218.496,140.981 225.327,141.782C226.029,138.632 226.596,135.446 226.992,132.251C226.623,135.446 226.083,138.632 225.399,141.791C232.194,142.583 238.98,143.384 245.766,144.212C246.342,141.035 246.837,137.849 247.242,134.654C246.864,137.849 246.396,141.035 245.838,144.212C247.188,144.374 248.538,144.536 249.888,144.698L294.906,150.323L339.879,156.281L362.352,159.377L384.807,162.626L362.262,160.079L339.735,157.388L294.717,151.763L249.744,145.805C248.385,145.616 247.026,145.427 245.667,145.238C244.704,150.575 243.471,155.858 241.95,161.069C241.833,161.501 241.716,161.933 241.581,162.356C241.464,162.752 241.338,163.139 241.221,163.535C238.566,172.166 235.092,180.554 230.682,188.447C226.047,196.664 220.395,204.458 213.087,210.578C209.451,213.638 205.374,216.248 200.874,217.94C196.41,219.704 191.496,220.37 186.681,219.902C181.884,219.317 177.204,217.598 173.199,214.898C169.14,212.252 165.684,208.796 162.759,204.989C156.909,197.348 152.967,188.456 150.276,179.312C147.63,170.15 146.109,160.682 145.524,151.178C144.921,141.674 145.254,132.134 146.307,122.675C147.486,113.234 149.403,103.883 152.211,94.784C155.001,85.676 158.691,76.838 163.416,68.54C168.159,60.278 174.081,52.547 181.56,46.49C185.286,43.475 189.453,40.919 194.025,39.299C198.104,37.987 195.725,38.624 201.223,37.641L208.612,37.641ZM204.698,38.912C201.169,38.942 197.893,39.743 194.619,40.928C190.308,42.548 186.366,45.068 182.82,48.038C175.701,54.005 170.148,61.664 165.576,69.764C156.477,86.09 151.374,104.477 149.196,123.017C148.08,132.305 147.693,141.683 148.215,151.025C148.71,160.358 150.132,169.646 152.661,178.628C155.199,187.574 158.817,196.331 164.343,203.792C167.088,207.518 170.337,210.884 174.153,213.467C177.915,216.122 182.307,217.823 186.852,218.462C187.986,218.597 189.129,218.66 190.272,218.66C193.728,218.66 197.202,218.057 200.469,216.833C204.843,215.276 208.884,212.819 212.511,209.876C219.801,203.981 225.633,196.385 230.313,188.24C234.759,180.428 238.287,172.085 240.996,163.499C241.122,163.103 241.257,162.698 241.383,162.293C241.509,161.879 241.626,161.456 241.752,161.042C243.309,155.84 244.578,150.566 245.586,145.229C238.809,144.302 232.032,143.366 225.264,142.412C224.049,147.821 222.357,153.131 220.107,158.198C219.783,158.945 219.468,159.692 219.117,160.43C218.505,161.69 217.857,162.932 217.173,164.156C214.428,169.025 211.035,173.615 206.688,177.224C202.44,180.824 196.824,183.29 191.1,182.633C185.376,181.985 180.453,178.295 177.114,173.804C173.685,169.295 171.408,164.03 169.833,158.639C166.719,147.803 166.233,136.346 167.493,125.195C168.879,114.053 172.029,103.028 177.591,93.218C180.39,88.349 183.828,83.759 188.211,80.177C192.513,76.595 198.165,74.165 203.889,74.867C209.604,75.56 214.482,79.277 217.776,83.777C221.151,88.295 223.383,93.551 224.913,98.933C226.047,102.983 226.812,107.132 227.253,111.308L248.295,113.801C248.259,111.335 248.169,108.869 248.016,106.403C247.44,96.998 245.928,87.629 243.318,78.584C240.672,69.575 236.775,60.818 231.069,53.384C228.225,49.676 224.877,46.346 220.989,43.808C217.137,41.207 212.691,39.596 208.137,39.038L204.698,38.912Z" style="fill:url(#_Linear64);fill-rule:nonzero;"/>
    </g>
    <g transform="matrix(0.121975,0.00511218,-0.00499241,0.119117,1.93825,2.41867)">
        <path d="M248.259,119.647C248.141,124.658 247.795,129.666 247.237,134.651C246.836,137.849 246.345,141.036 245.768,144.208C238.979,143.388 232.189,142.579 225.399,141.79C226.081,138.632 226.619,135.446 226.995,132.248C227.593,127.271 227.82,122.228 227.642,117.204L248.259,119.647ZM225.259,142.409C232.033,143.365 238.81,144.299 245.586,145.228C244.582,150.562 243.308,155.843 241.755,161.044L220.111,158.202C222.358,153.128 224.05,147.824 225.259,142.409M219.114,160.425L240.997,163.503C238.284,172.088 234.762,180.424 230.312,188.241C225.633,196.388 219.8,203.985 212.515,209.88C208.88,212.819 204.842,215.28 200.467,216.832C196.118,218.461 191.417,218.992 186.854,218.464C182.306,217.82 177.916,216.124 174.15,213.468C170.339,210.884 167.088,207.514 164.342,203.792C158.82,196.328 155.196,187.578 152.659,178.628C150.137,169.648 148.715,160.356 148.214,151.024C147.69,141.685 148.081,132.308 149.192,123.02C151.374,104.477 156.483,86.089 165.574,69.769C170.145,61.668 175.704,54.004 182.823,48.043C186.363,45.064 190.309,42.549 194.621,40.926C198.901,39.228 203.56,38.603 208.135,39.042C212.693,39.595 217.14,41.21 220.985,43.809C224.877,46.343 228.227,49.679 231.071,53.386C236.777,60.822 240.671,69.571 243.318,78.585C245.931,87.633 247.438,96.995 248.013,106.402C248.169,108.865 248.259,111.331 248.292,113.799L227.25,111.305C226.807,107.128 226.045,102.987 224.914,98.928C223.381,93.548 221.155,88.29 217.778,83.774C214.482,79.276 209.604,75.561 203.887,74.864C198.169,74.159 192.513,76.592 188.215,80.179C183.829,83.762 180.388,88.345 177.59,93.217C172.032,103.027 168.875,114.047 167.491,125.19C166.237,136.348 166.724,147.802 169.833,158.638C171.413,164.03 173.688,169.291 177.112,173.801C180.452,178.292 185.38,181.981 191.104,182.632C196.827,183.293 202.438,180.823 206.692,177.22C211.032,173.619 214.428,169.029 217.177,164.156C217.859,162.929 218.504,161.686 219.114,160.425M639.439,200.79C637.924,199.164 636.656,197.296 635.679,195.306C634.848,193.592 634.196,191.808 633.689,189.983L637.899,190.264C638.17,191.527 638.473,192.784 638.855,194.018C640.067,197.791 641.753,201.451 644.895,204.374C642.824,203.744 640.986,202.377 639.439,200.79M632.461,182.545C632.292,179.089 632.566,175.574 633.512,172.189L637.313,172.441C636.759,175.662 636.644,178.993 636.812,182.301C636.918,183.98 637.107,185.652 637.36,187.316L633.01,187.028C632.738,185.545 632.552,184.047 632.461,182.545M626.03,197.837C624.516,196.21 623.25,194.342 622.271,192.352C621.763,191.305 621.321,190.233 620.938,189.14L624.999,189.409C625.145,189.962 625.277,190.518 625.447,191.065C626.659,194.837 628.345,198.498 631.486,201.421C629.415,200.792 627.576,199.423 626.03,197.837M619.053,179.593C618.917,176.825 619.062,174.016 619.611,171.268L623.613,171.533C623.322,174.111 623.271,176.737 623.404,179.348C623.554,181.731 623.861,184.107 624.318,186.452L620.048,186.169C619.513,184.013 619.188,181.806 619.053,179.593M613.431,196.193C611.914,194.566 610.65,192.699 609.672,190.708C609.293,189.929 608.959,189.132 608.651,188.327L612.622,188.588C612.701,188.865 612.763,189.147 612.847,189.422C614.059,193.193 615.743,196.853 618.887,199.775C616.815,199.145 614.979,197.78 613.431,196.193M606.454,177.949C606.329,175.449 606.445,172.916 606.872,170.425L610.931,170.694C610.719,173.011 610.684,175.364 610.804,177.704C610.971,180.367 611.327,183.018 611.885,185.626L607.673,185.349C607.007,182.932 606.604,180.446 606.454,177.949M601.724,196.138C600.207,194.51 598.943,192.644 597.965,190.653C597.471,189.635 597.038,188.591 596.661,187.533L600.717,187.799C600.856,188.322 600.98,188.848 601.14,189.367C602.353,193.139 604.036,196.797 607.18,199.719C605.108,199.09 603.271,197.724 601.724,196.138M594.746,177.892C594.61,175.154 594.75,172.375 595.285,169.657L599.297,169.921C599.016,172.471 598.967,175.066 599.096,177.648C599.248,180.063 599.563,182.468 600.03,184.844L595.767,184.561C595.216,182.375 594.884,180.137 594.746,177.892M588.029,194.585C586.513,192.959 585.249,191.093 584.27,189.102C583.877,188.296 583.534,187.474 583.219,186.641L587.199,186.905C587.285,187.207 587.353,187.514 587.444,187.814C588.654,191.588 590.342,195.247 593.484,198.169C591.415,197.54 589.577,196.173 588.029,194.585M581.052,176.341C580.928,173.817 581.047,171.257 581.483,168.743L585.536,169.01C585.318,171.355 585.283,173.731 585.401,176.097C585.568,178.733 585.919,181.361 586.468,183.944L582.249,183.665C581.598,181.273 581.201,178.811 581.052,176.341M574.31,192.492C572.792,190.864 571.525,188.998 570.548,187.007C570.349,186.596 570.166,186.181 569.988,185.764L573.825,186.018C575.031,189.686 576.705,193.23 579.764,196.074C577.694,195.445 575.856,194.078 574.31,192.492M556.008,245.745C556.008,245.745 548.829,238.678 550.91,230.659C551.662,230.592 551.791,230.116 551.456,229.426L565.143,228.721C567.37,233.458 568.725,246.703 574.385,246.836L556.008,245.745ZM548.564,210.823L529.118,210.8C529.333,206.135 530.975,201.042 532.268,198.124L532.318,198.011L552.298,197.505C550.95,201.948 549.529,206.607 548.564,210.823M541.622,222.659C539.798,221.972 537.812,221.423 535.729,221.139C533.27,220.803 531.637,219.671 530.603,218.065L547.416,218.083C547.345,219.413 547.391,220.613 547.598,221.634C547.65,221.891 547.733,222.104 547.799,222.341L541.622,222.659ZM516.35,101.984C513.982,104.913 511.871,108.039 510.015,111.319C508.152,114.591 506.451,117.956 504.98,121.432C502.061,128.385 499.673,135.579 497.968,142.947C496.19,150.291 494.927,157.776 494.338,165.282C494.005,169.035 493.841,172.763 493.943,176.505C494.016,180.325 494.219,184.132 494.401,187.939C494.805,195.549 495.62,203.118 496.889,210.588C498.239,218.032 500.061,225.424 503.165,232.294C506.194,239.167 510.682,245.52 517.042,249.992C513.541,248.331 510.361,245.936 507.604,243.119C504.841,240.303 502.546,237.037 500.567,233.617C496.676,226.714 494.138,219.161 492.343,211.529C490.478,203.893 489.51,196.11 488.775,188.341C488.429,184.457 488.255,180.56 488.11,176.67C487.954,172.705 488.08,168.715 488.382,164.785C489.841,149.089 493.733,133.624 500.747,119.465C504.246,112.408 508.646,105.718 514.155,100.032C519.665,94.4 526.47,89.826 534.003,87.885C526.943,91.089 521.024,96.084 516.35,101.984M474.479,66.532C471.029,70.801 467.948,75.361 465.246,80.138C462.533,84.906 460.051,89.812 457.908,94.875C453.651,105.009 450.173,115.495 447.688,126.232C445.1,136.935 443.254,147.845 442.4,158.781C441.927,164.253 441.719,169.687 441.865,175.142C441.957,180.706 442.223,186.257 442.492,191.805C443.078,202.896 444.265,213.93 446.117,224.815C447.052,230.258 448.296,235.631 449.735,240.942C451.176,246.255 453.016,251.443 455.262,256.448C459.677,266.465 466.217,275.725 475.486,282.242C470.384,279.82 465.75,276.332 461.734,272.227C457.703,268.122 454.359,263.361 451.477,258.377C445.804,248.318 442.106,237.309 439.49,226.186C436.771,215.056 435.363,203.712 434.291,192.392C433.791,186.729 433.503,181.053 433.279,175.382C433.049,169.603 433.264,163.786 433.716,158.06C435.844,135.185 441.516,112.646 451.736,92.009C456.839,81.724 463.25,71.976 471.28,63.686C479.31,55.479 489.228,48.813 500.208,45.985C489.916,50.656 481.29,57.935 474.479,66.532M429.061,269.929C425.031,265.825 421.687,261.065 418.804,256.081C413.132,246.02 409.434,235.011 406.817,223.888C404.096,212.757 402.689,201.415 401.616,190.095C401.117,184.431 400.827,178.755 400.605,173.085C400.377,167.305 400.59,161.488 401.043,155.761C403.171,132.886 408.843,110.349 419.065,89.711C424.165,79.427 430.577,69.678 438.605,61.388C446.638,53.181 456.556,46.516 467.532,43.687C457.242,48.357 448.616,55.637 441.806,64.236C438.355,68.503 435.276,73.063 432.574,77.841C429.859,82.607 427.379,87.514 425.234,92.578C420.979,102.71 417.5,113.198 415.015,123.934C412.427,134.637 410.581,145.546 409.726,156.483C409.253,161.956 409.046,167.391 409.192,172.843C409.283,178.409 409.548,183.959 409.818,189.508C410.405,200.598 411.591,211.631 413.443,222.519C414.379,227.961 415.621,233.333 417.064,238.643C418.505,243.957 420.344,249.145 422.589,254.151C427.004,264.167 433.544,273.426 442.814,279.943C437.711,277.523 433.076,274.034 429.061,269.929M538.432,175.292L555.87,175.017C555.98,176.816 556.034,178.946 556.037,181.63C556.039,183.716 555.388,186.717 554.443,190.184L535.475,190.666C537.359,185.858 538.863,180.555 538.432,175.292M551.253,159.253C552.817,163.131 553.924,165.38 554.676,167.769L536.474,168.057C532.653,159.258 528.366,151.283 529.874,144.04L550.239,143.01C548.875,147.49 548.732,153.009 551.253,159.253M536.229,134.506C539.496,131.871 542.411,129.516 544.956,127.345L569.674,126.255C567.903,129.052 564.754,129.957 560.316,130.857C558.791,131.167 556.369,132.817 554.18,135.54L533.989,136.56C534.652,135.869 535.389,135.183 536.229,134.506M556.148,112.731L573.154,111.657C572.449,114.16 571.955,116.702 571.596,118.899L552.73,119.731C554.643,117.349 555.816,115.08 556.148,112.731M571.682,174.001C571.873,177.047 572.292,180.084 573.002,183.051L568.882,182.78C568.012,180.011 567.506,177.134 567.332,174.246C567.226,172.114 567.289,169.954 567.576,167.821L571.697,168.092C571.572,170.053 571.581,172.033 571.682,174.001M579.222,153.197C576.119,154.329 574.424,156.754 573.385,159.47L570.223,159.26C570.977,157.886 571.906,156.594 573.058,155.5C574.749,153.932 577.075,152.975 579.222,153.197M586.779,157.594C588.47,156.028 590.796,155.069 592.942,155.293C590.289,156.261 588.672,158.179 587.606,160.412L584.613,160.213C585.231,159.269 585.951,158.383 586.779,157.594M600.474,159.145C602.164,157.579 604.49,156.621 606.636,156.842C604.236,157.719 602.694,159.381 601.63,161.343L598.757,161.15C599.272,160.44 599.831,159.757 600.474,159.145M612.181,159.2C613.871,157.634 616.198,156.676 618.345,156.898C615.661,157.876 614.04,159.831 612.978,162.091L609.967,161.893C610.597,160.92 611.33,160.007 612.181,159.2M624.78,160.844C626.472,159.279 628.797,158.321 630.943,158.543C628.578,159.405 627.048,161.033 625.986,162.955L623.127,162.766C623.626,162.086 624.164,161.432 624.78,160.844M644.352,161.496C642.854,162.042 641.693,162.896 640.765,163.933L638.228,163.766C639.914,162.219 642.221,161.274 644.352,161.496M185.417,19.464C179.939,21.589 174.749,24.384 170.055,27.84C160.606,34.708 153.176,43.955 147.384,54.029C141.642,64.168 137.331,75.115 134.128,86.389C132.53,92.029 131.106,97.728 129.902,103.488C129.303,106.372 128.742,109.265 128.2,112.18C127.631,115.116 127.226,117.871 126.895,120.768C125.65,132.275 126.148,144.051 127.9,155.569C129.592,167.108 132.84,178.422 137.688,188.986C142.598,199.486 149.36,209.248 158.385,216.639C162.87,220.352 167.929,223.374 173.319,225.701C178.714,228.017 184.448,229.615 190.324,230.598C184.382,230.225 178.441,229.157 172.738,227.203C167.03,225.269 161.592,222.444 156.647,218.901C151.73,215.316 147.331,211.027 143.482,206.306C139.631,201.581 136.395,196.381 133.614,190.976C128.037,180.147 124.552,168.374 122.47,156.448C120.483,144.491 119.907,132.299 121.122,120.138C121.482,117.13 121.975,114.006 122.562,111.106C123.13,108.178 123.722,105.239 124.356,102.305C125.65,96.44 127.084,90.586 128.871,84.824C132.464,73.327 137.046,62.011 143.509,51.708C149.881,41.406 158.209,32.09 168.453,25.498C173.583,22.248 179.123,19.67 184.893,17.949C190.659,16.204 196.617,15.294 202.563,15.032C196.668,15.9 190.899,17.342 185.417,19.464M121.428,220.127C117.34,216.615 113.865,212.426 110.809,207.985C104.766,199.025 100.491,189.002 97.297,178.76C94.042,168.51 91.977,157.955 90.407,147.369C89.644,142.07 89.111,136.745 88.677,131.417L88.386,127.416L88.253,125.416L88.185,123.285C88.181,120.469 88.368,117.742 88.641,115.033C89.908,104.25 92.292,93.766 95.41,83.486C98.658,73.26 102.493,63.183 107.559,53.686C112.502,44.147 118.623,35.141 126.088,27.36C133.62,19.703 142.817,13.389 153.12,10.605C143.251,14.615 134.922,21.342 128.184,29.273C121.45,37.246 116.06,46.269 111.601,55.702C107.158,65.15 103.536,74.998 100.668,85.051C97.814,95.094 95.511,105.363 94.417,115.646C94.148,118.206 93.946,120.769 93.932,123.253L93.974,125.095L94.086,127.06L94.338,130.988C94.702,136.224 95.237,141.444 95.863,146.648C97.081,157.064 99,167.386 101.651,177.495C104.39,187.561 107.948,197.465 113.219,206.458C118.382,215.469 125.639,223.451 135.044,228.468C130.097,226.541 125.485,223.662 121.428,220.127M45.702,95.66C44.483,98.555 43.663,101.587 43.385,104.673C43.053,107.754 43.275,110.879 43.941,113.947C44.624,117.015 45.811,119.999 47.318,122.978C44.852,120.731 42.943,117.811 41.775,114.585C40.577,111.362 40.181,107.834 40.494,104.388C40.856,100.946 41.917,97.573 43.685,94.625C45.423,91.679 47.833,89.115 50.736,87.451C48.626,90.036 46.945,92.766 45.702,95.66M34.406,94.159C33.585,97.124 33.261,100.242 33.295,103.372C33.29,106.507 33.609,109.66 34.137,112.784C34.426,114.338 34.741,115.899 35.208,117.417C35.671,118.932 36.177,120.455 37.187,121.761C35.713,120.918 34.746,119.409 33.894,117.976C33.079,116.495 32.437,114.932 31.935,113.327C30.912,110.12 30.438,106.762 30.392,103.38C30.414,100.007 30.894,96.555 32.286,93.381C33.613,90.231 36.12,87.342 39.325,86.308C36.747,88.421 35.254,91.208 34.406,94.159M22.735,107.977C22.856,109.621 23.089,111.251 23.378,112.874C24.024,116.104 24.97,119.29 26.896,122.181C24.052,120.112 22.269,116.778 21.183,113.445C20.083,110.068 19.633,106.51 19.704,102.976C19.827,99.445 20.398,95.893 21.74,92.578C23.038,89.318 25.213,86.076 28.411,84.568C25.972,87.057 24.736,90.144 23.88,93.294C23.076,96.466 22.667,99.75 22.606,103.04L22.589,105.511L22.735,107.977ZM648.998,158.823C648.791,158.597 646.4,157.766 642.979,156.922C641.859,156.644 640.569,158.151 639.267,157.895C637.758,157.597 636.212,155.54 634.577,155.325C632.699,155.081 630.777,156.516 628.917,156.196C627.569,155.962 625.396,154.34 624.145,154.125C622.824,153.897 622.36,153.813 621.078,153.588C619.258,153.269 617.544,154.413 615.895,154.112C614.005,153.766 612.214,151.977 610.703,151.673C609.1,151.355 607.827,152.674 606.844,152.426C605.86,152.178 605.167,150.358 605.004,150.206C603.48,148.784 607.738,142.98 607.738,142.98C609.954,136.848 606.023,123.563 603.511,122.135C600.999,120.709 597.107,126.162 593.156,122.517C590.927,120.46 590.075,99.127 581.792,100.313C579.533,100.636 577.771,102.115 576.367,104.178L558.75,105.29C561.07,102.929 565.016,101.655 570.718,100.829L581.792,100.313L574.595,98.934C574.038,91.605 555.483,65.009 543.022,65.682C535.22,50.96 509.82,35.358 489.281,43.724C454.275,22.166 405.523,63.18 394.235,120.81L255.711,105.339C256.13,19.693 200.646,-0.513 180.162,10.558C171.021,2.035 135.966,-2.714 112.77,24.224C85.912,30.661 80.359,49.574 80.359,49.574C80.359,49.574 66.21,50.465 61.374,53.425C56.54,56.382 57.645,78.885 53.855,82.125C50.065,85.364 29.71,80.863 29.71,80.863C29.71,80.863 17.059,83.412 15.543,102.74C13.987,122.588 25.393,126.948 25.393,126.948L45.15,129.348C45.15,129.348 50.198,134.748 48.031,141.116C45.864,147.485 50.088,168.246 50.088,168.246C50.088,168.246 52.59,172.946 66.725,170.622C64.206,164.612 62.377,158.286 61.23,151.855C60.25,146.623 59.728,141.313 59.45,136C59.2,130.679 59.358,125.351 59.725,120.047C60.567,109.446 62.465,98.917 65.701,88.785C67.3,83.717 69.265,78.754 71.685,74.016C72.895,71.646 74.283,69.364 75.812,67.191C77.331,65.02 79.11,62.963 81.304,61.475C79.308,63.208 77.791,65.375 76.451,67.612C75.129,69.863 73.958,72.203 72.964,74.62C70.895,79.416 69.252,84.39 67.867,89.426C65.13,99.51 63.391,109.861 62.619,120.266C61.787,130.667 62.039,141.155 63.468,151.489C64.184,156.656 65.268,161.777 66.736,166.799C68.142,171.841 70.058,176.736 72.296,181.516C70.428,178.486 68.792,175.31 67.35,172.04C73.91,194.753 88.776,200.909 93.67,205.358C106.363,236.878 139.78,240.848 149.602,238.116C149.602,238.116 169.15,250.456 198.817,237.769C228.487,225.082 251.802,181.073 249.977,164.766L241.218,163.533C238.564,172.164 235.092,180.558 230.677,188.45C226.046,196.663 220.4,204.458 213.088,210.583C209.451,213.64 205.373,216.244 200.874,217.936C196.413,219.704 191.501,220.37 186.683,219.9C181.883,219.319 177.202,217.604 173.196,214.894C169.138,212.25 165.684,208.795 162.761,204.991C156.906,197.351 152.967,188.453 150.277,179.315C147.627,170.144 146.111,160.682 145.53,151.182C144.926,141.68 145.252,132.134 146.313,122.677C147.483,113.235 149.407,103.881 152.213,94.78C155.001,85.68 158.691,76.835 163.413,68.539C168.156,60.277 174.076,52.551 181.554,46.493C185.284,43.476 189.456,40.925 194.02,39.303C198.549,37.605 203.501,37.033 208.307,37.594C213.101,38.264 217.722,40.058 221.648,42.825C225.624,45.523 228.98,49.007 231.802,52.832C237.479,60.499 241.147,69.397 243.725,78.468C246.283,87.57 247.717,96.965 248.224,106.391C248.363,108.865 248.434,111.339 248.449,113.816L389.599,130.534L388.915,136.303L248.371,119.658C248.215,124.669 247.833,129.673 247.237,134.651C246.861,137.85 246.392,141.04 245.838,144.216C247.188,144.378 248.539,144.534 249.888,144.698L294.905,150.321L339.879,156.278L362.352,159.374L384.804,162.622L362.261,160.08L339.736,157.386L294.72,151.76L249.744,145.802C248.385,145.615 247.026,145.425 245.665,145.24C244.701,150.575 243.47,155.861 241.956,161.07L383.947,179.719C383.365,238 409.671,298.029 458.873,283.603C488.743,301.757 517.322,281.879 521.336,273.655C549.104,269.257 557.447,247.061 557.447,247.061C557.447,247.061 574.313,249.816 578.58,247.715C582.847,245.614 584.229,229.276 587.58,221.431C590.93,213.587 596.82,214.617 599.238,213.138C601.655,211.66 603.352,206.622 603.062,205.197C602.774,203.774 634.75,210.381 637.407,210.09C640.065,209.8 654.159,206.201 656.056,187.533C657.953,168.865 649.951,159.866 648.998,158.823M206.584,159.113C205.054,159.536 203.338,159.235 201.974,158.365C200.589,157.512 199.509,156.258 198.615,154.933C196.856,152.231 195.757,149.193 194.872,146.14C193.995,143.073 193.464,139.926 193.096,136.771C192.733,133.61 192.561,130.429 192.63,127.238C192.752,124.062 193.076,120.828 194.027,117.74C194.919,114.698 196.028,111.631 197.773,108.922C199.491,106.209 201.651,103.748 204.265,101.891C206.888,100.058 209.835,98.737 212.901,97.983C206.921,100.009 201.728,104.06 198.729,109.492C197.202,112.182 196.115,115.087 195.295,118.104C194.424,121.066 194.158,124.166 194.082,127.28C193.873,133.508 194.541,139.789 195.954,145.857C196.689,148.88 197.648,151.884 199.217,154.554C199.988,155.885 200.934,157.146 202.186,158.042C203.422,158.94 205.016,159.377 206.584,159.113M227.525,117.191L204.76,114.494L205.444,108.723L227.086,111.288C226.614,107.134 225.825,103.022 224.669,98.999C223.104,93.654 220.844,88.444 217.472,84.004C214.181,79.58 209.369,76.002 203.827,75.371C198.285,74.734 192.812,77.123 188.618,80.672C184.347,84.216 180.979,88.762 178.255,93.594C172.836,103.33 169.796,114.273 168.498,125.311C167.173,136.345 167.571,147.698 170.565,158.43C172.083,163.766 174.292,168.972 177.618,173.418C180.864,177.851 185.625,181.455 191.164,182.129C196.701,182.812 202.215,180.459 206.451,176.926C210.77,173.399 214.182,168.862 216.957,164.03C217.633,162.836 218.272,161.622 218.879,160.389L214.372,159.757L213.891,157.384L219.901,158.173C222.19,153.12 223.928,147.819 225.181,142.397C218.392,141.438 211.604,140.468 204.823,139.459C211.661,140.202 218.493,140.984 225.326,141.78C226.032,138.629 226.596,135.446 226.995,132.248C227.558,127.26 227.742,122.213 227.525,117.191" style="fill:rgb(16,42,66);fill-rule:nonzero;"/>
    </g>
    <g transform="matrix(2.67198,0,0,2.67198,-164.824,-32.6158)">
        <path d="M94.892,17.223C94.892,16.815 94.836,16.513 94.724,16.317C94.612,16.121 94.388,16.023 94.052,16.023L93.812,16.023L93.812,15.783L96.932,15.783C97.804,15.783 98.562,15.927 99.206,16.215C99.85,16.503 100.172,17.059 100.172,17.883C100.172,18.259 100.044,18.599 99.788,18.903C99.532,19.207 99.14,19.447 98.612,19.623C99.348,19.743 99.862,19.961 100.154,20.277C100.446,20.593 100.592,21.015 100.592,21.543C100.592,22.351 100.274,22.913 99.638,23.229C99.002,23.545 98.22,23.703 97.292,23.703L94.892,23.703L94.892,17.223ZM97.112,19.443C97.44,19.443 97.75,19.381 98.042,19.257C98.334,19.133 98.572,18.949 98.756,18.705C98.94,18.461 99.032,18.167 99.032,17.823C99.032,17.463 98.924,17.161 98.708,16.917C98.492,16.673 98.218,16.493 97.886,16.377C97.554,16.261 97.216,16.203 96.872,16.203C96.592,16.203 96.292,16.243 95.972,16.323L95.972,19.443L97.112,19.443ZM97.112,23.283C97.84,23.283 98.402,23.139 98.798,22.851C99.194,22.563 99.392,22.147 99.392,21.603C99.392,21.059 99.198,20.643 98.81,20.355C98.422,20.067 97.856,19.923 97.112,19.923L95.972,19.923L95.972,23.115C96.356,23.227 96.736,23.283 97.112,23.283Z" style="fill:rgb(16,42,66);fill-rule:nonzero;"/>
        <path d="M108.836,23.823C108.412,23.823 108.042,23.697 107.726,23.445C107.41,23.193 107.06,22.739 106.676,22.083L105.476,20.043L104.636,20.043L104.636,23.703L103.556,23.703L103.556,17.223C103.556,16.815 103.5,16.513 103.388,16.317C103.276,16.121 103.052,16.023 102.716,16.023L102.476,16.023L102.476,15.783L105.596,15.783C106.356,15.783 107.046,15.933 107.666,16.233C108.286,16.533 108.596,17.103 108.596,17.943C108.596,19.007 107.956,19.687 106.676,19.983L107.936,22.083C108.232,22.579 108.498,22.925 108.734,23.121C108.97,23.317 109.244,23.431 109.556,23.463L109.556,23.703C109.484,23.735 109.382,23.763 109.25,23.787C109.118,23.811 108.98,23.823 108.836,23.823ZM105.536,19.623C105.784,19.623 106.054,19.563 106.346,19.443C106.638,19.323 106.886,19.135 107.09,18.879C107.294,18.623 107.396,18.311 107.396,17.943C107.396,17.551 107.294,17.225 107.09,16.965C106.886,16.705 106.638,16.513 106.346,16.389C106.054,16.265 105.784,16.203 105.536,16.203C105.256,16.203 104.956,16.243 104.636,16.323L104.636,19.503C104.956,19.583 105.256,19.623 105.536,19.623Z" style="fill:rgb(16,42,66);fill-rule:nonzero;"/>
        <path d="M118.088,23.763C117.704,23.763 117.324,23.657 116.948,23.445C116.572,23.233 116.272,22.819 116.048,22.203L115.748,21.423L112.388,21.423L111.428,23.703L110.888,23.703L114.248,15.783L114.608,15.783L117.248,22.203C117.448,22.667 117.636,22.985 117.812,23.157C117.988,23.329 118.24,23.431 118.568,23.463L118.568,23.703C118.424,23.743 118.264,23.763 118.088,23.763ZM112.568,20.943L115.508,20.943L114.068,17.463L112.568,20.943Z" style="fill:rgb(16,42,66);fill-rule:nonzero;"/>
        <path d="M119.588,17.187C119.388,16.723 119.2,16.405 119.024,16.233C118.848,16.061 118.596,15.959 118.268,15.927L118.268,15.687C118.308,15.687 118.366,15.683 118.442,15.675C118.518,15.667 118.596,15.663 118.676,15.663C119.076,15.663 119.46,15.765 119.828,15.969C120.196,16.173 120.508,16.579 120.764,17.187L122.816,22.023L123.524,20.379C123.86,19.603 124.504,18.071 125.456,15.783L126.032,15.783L122.588,23.823L122.372,23.823L119.588,17.187Z" style="fill:rgb(16,42,66);fill-rule:nonzero;"/>
        <path d="M128.768,17.223C128.768,16.815 128.712,16.513 128.6,16.317C128.488,16.121 128.264,16.023 127.928,16.023L127.688,16.023L127.688,15.783L132.8,15.783C133.48,15.783 133.82,16.103 133.82,16.743L133.82,17.643L133.58,17.643C133.58,16.723 133.08,16.263 132.08,16.263L129.848,16.263L129.848,19.383L133.088,19.383L133.088,19.863L129.848,19.863L129.848,23.223L131.948,23.223C132.5,23.223 132.932,23.123 133.244,22.923C133.556,22.723 133.804,22.383 133.988,21.903L134.228,21.963L133.808,23.103C133.664,23.503 133.364,23.703 132.908,23.703L128.768,23.703L128.768,17.223Z" style="fill:rgb(16,42,66);fill-rule:nonzero;"/>
    </g>
    <g transform="matrix(3.40267,0,0,3.40267,-266.032,-34.4065)">
        <path d="M105.877,22.674L106.156,22.674L106.156,23.467C106.055,23.551 105.938,23.615 105.805,23.659C105.671,23.704 105.532,23.726 105.386,23.726C105.181,23.726 104.996,23.681 104.832,23.591C104.667,23.501 104.538,23.377 104.444,23.219C104.35,23.061 104.303,22.884 104.303,22.686C104.303,22.489 104.35,22.31 104.444,22.152C104.538,21.993 104.668,21.869 104.833,21.78C104.999,21.691 105.185,21.646 105.392,21.646C105.555,21.646 105.703,21.673 105.835,21.726C105.968,21.779 106.081,21.857 106.174,21.96L105.993,22.14C105.831,21.983 105.634,21.905 105.404,21.905C105.249,21.905 105.11,21.938 104.987,22.005C104.864,22.072 104.768,22.165 104.698,22.284C104.628,22.403 104.594,22.537 104.594,22.686C104.594,22.833 104.628,22.966 104.698,23.085C104.768,23.205 104.864,23.298 104.987,23.366C105.11,23.433 105.248,23.467 105.401,23.467C105.583,23.467 105.742,23.424 105.877,23.337L105.877,22.674Z" style="fill:rgb(28,142,224);fill-rule:nonzero;"/>
        <path d="M108.796,23L108.796,23.703L108.509,23.703L108.509,22.994L107.701,21.67L108.012,21.67L108.663,22.741L109.316,21.67L109.604,21.67L108.796,23Z" style="fill:rgb(28,142,224);fill-rule:nonzero;"/>
        <path d="M113.054,23.703L113.051,22.221L112.316,23.456L112.183,23.456L111.448,22.23L111.448,23.703L111.169,23.703L111.169,21.67L111.407,21.67L112.255,23.099L113.092,21.67L113.33,21.67L113.333,23.703L113.054,23.703Z" style="fill:rgb(28,142,224);fill-rule:nonzero;"/>
        <path d="M117.93,23.726C117.777,23.726 117.63,23.702 117.487,23.655C117.345,23.607 117.233,23.546 117.152,23.47L117.259,23.244C117.337,23.313 117.436,23.37 117.557,23.414C117.678,23.457 117.802,23.479 117.93,23.479C118.099,23.479 118.225,23.45 118.308,23.393C118.391,23.336 118.433,23.26 118.433,23.165C118.433,23.096 118.41,23.039 118.364,22.995C118.319,22.952 118.263,22.918 118.196,22.895C118.129,22.872 118.035,22.846 117.913,22.817C117.76,22.78 117.636,22.743 117.542,22.706C117.449,22.67 117.368,22.613 117.301,22.537C117.235,22.46 117.201,22.357 117.201,22.227C117.201,22.119 117.23,22.021 117.287,21.934C117.344,21.847 117.431,21.777 117.547,21.725C117.663,21.672 117.807,21.646 117.98,21.646C118.1,21.646 118.218,21.662 118.334,21.693C118.45,21.724 118.55,21.768 118.633,21.826L118.537,22.059C118.452,22.005 118.361,21.963 118.264,21.935C118.167,21.907 118.073,21.893 117.98,21.893C117.815,21.893 117.692,21.923 117.609,21.983C117.527,22.043 117.486,22.121 117.486,22.216C117.486,22.285 117.509,22.342 117.556,22.386C117.602,22.429 117.66,22.463 117.728,22.487C117.797,22.511 117.891,22.537 118.009,22.564C118.162,22.601 118.285,22.638 118.377,22.674C118.47,22.711 118.55,22.767 118.617,22.843C118.684,22.918 118.717,23.02 118.717,23.148C118.717,23.254 118.688,23.352 118.63,23.44C118.572,23.528 118.484,23.598 118.366,23.649C118.248,23.7 118.103,23.726 117.93,23.726Z" style="fill:rgb(28,142,224);fill-rule:nonzero;"/>
        <path d="M120.823,21.922L120.126,21.922L120.126,21.67L121.807,21.67L121.807,21.922L121.11,21.922L121.11,23.703L120.823,23.703L120.823,21.922Z" style="fill:rgb(28,142,224);fill-rule:nonzero;"/>
        <path d="M124.235,23.726C123.964,23.726 123.753,23.648 123.602,23.494C123.451,23.339 123.376,23.116 123.376,22.826L123.376,21.67L123.666,21.67L123.666,22.814C123.666,23.25 123.857,23.467 124.238,23.467C124.424,23.467 124.567,23.414 124.665,23.306C124.764,23.199 124.813,23.035 124.813,22.814L124.813,21.67L125.095,21.67L125.095,22.826C125.095,23.118 125.02,23.341 124.869,23.495C124.718,23.649 124.507,23.726 124.235,23.726Z" style="fill:rgb(28,142,224);fill-rule:nonzero;"/>
        <path d="M126.997,21.67L127.854,21.67C128.069,21.67 128.26,21.712 128.426,21.797C128.593,21.883 128.722,22.002 128.814,22.156C128.906,22.31 128.952,22.487 128.952,22.686C128.952,22.886 128.906,23.062 128.814,23.216C128.722,23.37 128.593,23.49 128.426,23.575C128.26,23.66 128.069,23.703 127.854,23.703L126.997,23.703L126.997,21.67ZM127.837,23.45C128.001,23.45 128.146,23.418 128.271,23.354C128.396,23.29 128.492,23.201 128.56,23.085C128.628,22.97 128.662,22.837 128.662,22.686C128.662,22.535 128.628,22.402 128.56,22.287C128.492,22.172 128.396,22.082 128.271,22.018C128.146,21.954 128.001,21.922 127.837,21.922L127.288,21.922L127.288,23.45L127.837,23.45Z" style="fill:rgb(28,142,224);fill-rule:nonzero;"/>
        <rect x="130.703" y="21.67" width="0.29" height="2.033" style="fill:rgb(28,142,224);fill-rule:nonzero;"/>
        <path d="M133.828,23.726C133.623,23.726 133.438,23.681 133.274,23.591C133.109,23.501 132.98,23.376 132.886,23.218C132.792,23.059 132.745,22.882 132.745,22.686C132.745,22.491 132.792,22.313 132.886,22.155C132.98,21.996 133.109,21.871 133.274,21.781C133.438,21.691 133.623,21.646 133.828,21.646C134.032,21.646 134.216,21.691 134.38,21.781C134.545,21.871 134.674,21.995 134.767,22.153C134.859,22.311 134.906,22.489 134.906,22.686C134.906,22.884 134.859,23.061 134.767,23.219C134.674,23.377 134.545,23.501 134.38,23.591C134.216,23.681 134.032,23.726 133.828,23.726ZM133.828,23.467C133.978,23.467 134.112,23.433 134.231,23.366C134.35,23.298 134.444,23.205 134.512,23.085C134.581,22.966 134.615,22.833 134.615,22.686C134.615,22.539 134.581,22.406 134.512,22.287C134.444,22.168 134.35,22.074 134.231,22.006C134.112,21.939 133.978,21.905 133.828,21.905C133.679,21.905 133.544,21.939 133.423,22.006C133.302,22.074 133.207,22.168 133.139,22.287C133.07,22.406 133.036,22.539 133.036,22.686C133.036,22.833 133.07,22.966 133.139,23.085C133.207,23.205 133.302,23.298 133.423,23.366C133.544,23.433 133.679,23.467 133.828,23.467Z" style="fill:rgb(28,142,224);fill-rule:nonzero;"/>
    </g>
    <defs>
        <linearGradient id="_Linear1" x1="0" y1="0" x2="1" y2="0" gradientUnits="userSpaceOnUse" gradientTransform="matrix(67.021,0,0,67.021,400.534,161.767)"><stop offset="0" style="stop-color:rgb(255,255,254);stop-opacity:1"/><stop offset="1" style="stop-color:rgb(27,26,25);stop-opacity:1"/></linearGradient>
        <linearGradient id="_Linear3" x1="0" y1="0" x2="1" y2="0" gradientUnits="userSpaceOnUse" gradientTransform="matrix(67.021,0,0,67.021,433.272,164.072)"><stop offset="0" style="stop-color:rgb(255,255,254);stop-opacity:1"/><stop offset="1" style="stop-color:rgb(27,26,25);stop-opacity:1"/></linearGradient>
        <linearGradient id="_Linear4" x1="0" y1="0" x2="1" y2="0" gradientUnits="userSpaceOnUse" gradientTransform="matrix(45.961,0,0,45.961,488.026,168.958)"><stop offset="0" style="stop-color:rgb(255,255,254);stop-opacity:1"/><stop offset="1" style="stop-color:rgb(27,26,25);stop-opacity:1"/></linearGradient>
        <linearGradient id="_Linear6" x1="0" y1="0" x2="1" y2="0" gradientUnits="userSpaceOnUse" gradientTransform="matrix(4.947,0,0,4.947,632.411,179.755)"><stop offset="0" style="stop-color:rgb(255,255,254);stop-opacity:1"/><stop offset="1" style="stop-color:rgb(27,26,25);stop-opacity:1"/></linearGradient>
        <linearGradient id="_Linear8" x1="0" y1="0" x2="1" y2="0" gradientUnits="userSpaceOnUse" gradientTransform="matrix(6.125,0,0,6.125,638.228,162.701)"><stop offset="0" style="stop-color:rgb(255,255,254);stop-opacity:1"/><stop offset="1" style="stop-color:rgb(27,26,25);stop-opacity:1"/></linearGradient>
        <linearGradient id="_Linear10" x1="0" y1="0" x2="1" y2="0" gradientUnits="userSpaceOnUse" gradientTransform="matrix(11.203,0,0,11.203,633.694,197.178)"><stop offset="0" style="stop-color:rgb(255,255,254);stop-opacity:1"/><stop offset="1" style="stop-color:rgb(27,26,25);stop-opacity:1"/></linearGradient>
        <linearGradient id="_Linear11" x1="0" y1="0" x2="1" y2="0" gradientUnits="userSpaceOnUse" gradientTransform="matrix(10.549,0,0,10.549,620.94,195.285)"><stop offset="0" style="stop-color:rgb(255,255,254);stop-opacity:1"/><stop offset="1" style="stop-color:rgb(27,26,25);stop-opacity:1"/></linearGradient>
        <linearGradient id="_Linear13" x1="0" y1="0" x2="1" y2="0" gradientUnits="userSpaceOnUse" gradientTransform="matrix(5.313,0,0,5.313,619.002,178.866)"><stop offset="0" style="stop-color:rgb(255,255,254);stop-opacity:1"/><stop offset="1" style="stop-color:rgb(27,26,25);stop-opacity:1"/></linearGradient>
        <linearGradient id="_Linear15" x1="0" y1="0" x2="1" y2="0" gradientUnits="userSpaceOnUse" gradientTransform="matrix(7.817,0,0,7.817,623.122,160.735)"><stop offset="0" style="stop-color:rgb(255,255,254);stop-opacity:1"/><stop offset="1" style="stop-color:rgb(27,26,25);stop-opacity:1"/></linearGradient>
        <linearGradient id="_Linear16" x1="0" y1="0" x2="1" y2="0" gradientUnits="userSpaceOnUse" gradientTransform="matrix(8.376,0,0,8.376,609.972,159.486)"><stop offset="0" style="stop-color:rgb(255,255,254);stop-opacity:1"/><stop offset="1" style="stop-color:rgb(27,26,25);stop-opacity:1"/></linearGradient>
        <linearGradient id="_Linear18" x1="0" y1="0" x2="1" y2="0" gradientUnits="userSpaceOnUse" gradientTransform="matrix(10.236,0,0,10.236,608.654,194.065)"><stop offset="0" style="stop-color:rgb(255,255,254);stop-opacity:1"/><stop offset="1" style="stop-color:rgb(27,26,25);stop-opacity:1"/></linearGradient>
        <linearGradient id="_Linear20" x1="0" y1="0" x2="1" y2="0" gradientUnits="userSpaceOnUse" gradientTransform="matrix(5.477,0,0,5.477,606.404,178.026)"><stop offset="0" style="stop-color:rgb(255,255,254);stop-opacity:1"/><stop offset="1" style="stop-color:rgb(27,26,25);stop-opacity:1"/></linearGradient>
        <linearGradient id="_Linear22" x1="0" y1="0" x2="1" y2="0" gradientUnits="userSpaceOnUse" gradientTransform="matrix(5.332,0,0,5.332,594.697,177.249)"><stop offset="0" style="stop-color:rgb(255,255,254);stop-opacity:1"/><stop offset="1" style="stop-color:rgb(27,26,25);stop-opacity:1"/></linearGradient>
        <linearGradient id="_Linear24" x1="0" y1="0" x2="1" y2="0" gradientUnits="userSpaceOnUse" gradientTransform="matrix(10.519,0,0,10.519,596.66,193.625)"><stop offset="0" style="stop-color:rgb(255,255,254);stop-opacity:1"/><stop offset="1" style="stop-color:rgb(27,26,25);stop-opacity:1"/></linearGradient>
        <linearGradient id="_Linear26" x1="0" y1="0" x2="1" y2="0" gradientUnits="userSpaceOnUse" gradientTransform="matrix(7.88,0,0,7.88,598.75,159.083)"><stop offset="0" style="stop-color:rgb(255,255,254);stop-opacity:1"/><stop offset="1" style="stop-color:rgb(27,26,25);stop-opacity:1"/></linearGradient>
        <linearGradient id="_Linear28" x1="0" y1="0" x2="1" y2="0" gradientUnits="userSpaceOnUse" gradientTransform="matrix(10.266,0,0,10.266,583.222,192.404)"><stop offset="0" style="stop-color:rgb(255,255,254);stop-opacity:1"/><stop offset="1" style="stop-color:rgb(27,26,25);stop-opacity:1"/></linearGradient>
        <linearGradient id="_Linear30" x1="0" y1="0" x2="1" y2="0" gradientUnits="userSpaceOnUse" gradientTransform="matrix(5.462,0,0,5.462,581.005,176.344)"><stop offset="0" style="stop-color:rgb(255,255,254);stop-opacity:1"/><stop offset="1" style="stop-color:rgb(27,26,25);stop-opacity:1"/></linearGradient>
        <linearGradient id="_Linear32" x1="0" y1="0" x2="1" y2="0" gradientUnits="userSpaceOnUse" gradientTransform="matrix(8.329,0,0,8.329,584.607,157.847)"><stop offset="0" style="stop-color:rgb(255,255,254);stop-opacity:1"/><stop offset="1" style="stop-color:rgb(27,26,25);stop-opacity:1"/></linearGradient>
        <linearGradient id="_Linear34" x1="0" y1="0" x2="1" y2="0" gradientUnits="userSpaceOnUse" gradientTransform="matrix(5.719,0,0,5.719,567.282,175.44)"><stop offset="0" style="stop-color:rgb(255,255,254);stop-opacity:1"/><stop offset="1" style="stop-color:rgb(27,26,25);stop-opacity:1"/></linearGradient>
        <linearGradient id="_Linear36" x1="0" y1="0" x2="1" y2="0" gradientUnits="userSpaceOnUse" gradientTransform="matrix(8.998,0,0,8.998,570.23,156.328)"><stop offset="0" style="stop-color:rgb(255,255,254);stop-opacity:1"/><stop offset="1" style="stop-color:rgb(27,26,25);stop-opacity:1"/></linearGradient>
        <linearGradient id="_Linear38" x1="0" y1="0" x2="1" y2="0" gradientUnits="userSpaceOnUse" gradientTransform="matrix(9.777,0,0,9.777,569.99,190.925)"><stop offset="0" style="stop-color:rgb(255,255,254);stop-opacity:1"/><stop offset="1" style="stop-color:rgb(27,26,25);stop-opacity:1"/></linearGradient>
        <linearGradient id="_Linear40" x1="0" y1="0" x2="1" y2="0" gradientUnits="userSpaceOnUse" gradientTransform="matrix(23.179,0,0,23.179,529.117,204.161)"><stop offset="0" style="stop-color:rgb(255,255,254);stop-opacity:1"/><stop offset="1" style="stop-color:rgb(27,26,25);stop-opacity:1"/></linearGradient>
        <linearGradient id="_Linear42" x1="0" y1="0" x2="1" y2="0" gradientUnits="userSpaceOnUse" gradientTransform="matrix(35.685,0,0,35.685,533.989,131.389)"><stop offset="0" style="stop-color:rgb(255,255,254);stop-opacity:1"/><stop offset="1" style="stop-color:rgb(27,26,25);stop-opacity:1"/></linearGradient>
        <linearGradient id="_Linear44" x1="0" y1="0" x2="1" y2="0" gradientUnits="userSpaceOnUse" gradientTransform="matrix(25.111,0,0,25.111,529.575,155.54)"><stop offset="0" style="stop-color:rgb(255,255,254);stop-opacity:1"/><stop offset="1" style="stop-color:rgb(27,26,25);stop-opacity:1"/></linearGradient>
        <linearGradient id="_Linear45" x1="0" y1="0" x2="1" y2="0" gradientUnits="userSpaceOnUse" gradientTransform="matrix(23.851,0,0,23.851,550.549,237.768)"><stop offset="0" style="stop-color:rgb(255,255,254);stop-opacity:1"/><stop offset="1" style="stop-color:rgb(27,26,25);stop-opacity:1"/></linearGradient>
        <linearGradient id="_Linear47" x1="0" y1="0" x2="1" y2="0" gradientUnits="userSpaceOnUse" gradientTransform="matrix(20.562,0,0,20.562,535.466,182.868)"><stop offset="0" style="stop-color:rgb(255,255,254);stop-opacity:1"/><stop offset="1" style="stop-color:rgb(27,26,25);stop-opacity:1"/></linearGradient>
        <linearGradient id="_Linear49" x1="0" y1="0" x2="1" y2="0" gradientUnits="userSpaceOnUse" gradientTransform="matrix(23.042,0,0,23.042,558.743,102.802)"><stop offset="0" style="stop-color:rgb(255,255,254);stop-opacity:1"/><stop offset="1" style="stop-color:rgb(27,26,25);stop-opacity:1"/></linearGradient>
        <linearGradient id="_Linear51" x1="0" y1="0" x2="1" y2="0" gradientUnits="userSpaceOnUse" gradientTransform="matrix(17.197,0,0,17.197,530.601,220.372)"><stop offset="0" style="stop-color:rgb(255,255,254);stop-opacity:1"/><stop offset="1" style="stop-color:rgb(27,26,25);stop-opacity:1"/></linearGradient>
        <linearGradient id="_Linear52" x1="0" y1="0" x2="1" y2="0" gradientUnits="userSpaceOnUse" gradientTransform="matrix(20.424,0,0,20.424,552.732,115.696)"><stop offset="0" style="stop-color:rgb(255,255,254);stop-opacity:1"/><stop offset="1" style="stop-color:rgb(27,26,25);stop-opacity:1"/></linearGradient>
        <linearGradient id="_Linear53" x1="0" y1="0" x2="1" y2="0" gradientUnits="userSpaceOnUse" gradientTransform="matrix(82.075,0,0,82.075,120.479,122.813)"><stop offset="0" style="stop-color:rgb(255,255,254);stop-opacity:1"/><stop offset="1" style="stop-color:rgb(27,26,25);stop-opacity:1"/></linearGradient>
        <linearGradient id="_Linear54" x1="0" y1="0" x2="1" y2="0" gradientUnits="userSpaceOnUse" gradientTransform="matrix(64.934,0,0,64.934,88.176,119.534)"><stop offset="0" style="stop-color:rgb(255,255,254);stop-opacity:1"/><stop offset="1" style="stop-color:rgb(27,26,25);stop-opacity:1"/></linearGradient>
        <linearGradient id="_Linear56" x1="0" y1="0" x2="1" y2="0" gradientUnits="userSpaceOnUse" gradientTransform="matrix(21.975,0,0,21.975,59.324,121.48)"><stop offset="0" style="stop-color:rgb(255,255,254);stop-opacity:1"/><stop offset="1" style="stop-color:rgb(27,26,25);stop-opacity:1"/></linearGradient>
        <linearGradient id="_Linear57" x1="0" y1="0" x2="1" y2="0" gradientUnits="userSpaceOnUse" gradientTransform="matrix(10.344,0,0,10.344,40.388,105.228)"><stop offset="0" style="stop-color:rgb(255,255,254);stop-opacity:1"/><stop offset="1" style="stop-color:rgb(27,26,25);stop-opacity:1"/></linearGradient>
        <linearGradient id="_Linear59" x1="0" y1="0" x2="1" y2="0" gradientUnits="userSpaceOnUse" gradientTransform="matrix(8.714,0,0,8.714,19.697,103.372)"><stop offset="0" style="stop-color:rgb(255,255,254);stop-opacity:1"/><stop offset="1" style="stop-color:rgb(27,26,25);stop-opacity:1"/></linearGradient>
        <linearGradient id="_Linear61" x1="0" y1="0" x2="1" y2="0" gradientUnits="userSpaceOnUse" gradientTransform="matrix(8.933,0,0,8.933,30.397,104.042)"><stop offset="0" style="stop-color:rgb(255,255,254);stop-opacity:1"/><stop offset="1" style="stop-color:rgb(27,26,25);stop-opacity:1"/></linearGradient>
        <linearGradient id="_Linear63" x1="0" y1="0" x2="1" y2="0" gradientUnits="userSpaceOnUse" gradientTransform="matrix(20.285,0,0,20.285,192.597,128.661)"><stop offset="0" style="stop-color:rgb(255,255,254);stop-opacity:1"/><stop offset="1" style="stop-color:rgb(27,26,25);stop-opacity:1"/></linearGradient>
        <linearGradient id="_Linear64" x1="0" y1="0" x2="1" y2="0" gradientUnits="userSpaceOnUse" gradientTransform="matrix(244.371,0,0,244.371,145.069,128.971)"><stop offset="0" style="stop-color:rgb(255,255,254);stop-opacity:1"/><stop offset="1" style="stop-color:rgb(27,26,25);stop-opacity:1"/></linearGradient>
    </defs>
</svg>
