<svg id="nutrition" xmlns="http://www.w3.org/2000/svg" viewBox="0 0 120 120" xml:space="preserve" style="fill-rule:evenodd;clip-rule:evenodd;stroke-linejoin:round;stroke-miterlimit:2"><path d="M29.487 46.906h14.524V30.371h26.884v5.25c0 2.208 1.793 4 4 4 2.208 0 4-1.792 4-4v-9.25a4 4 0 0 0-4-4H40.364a3.998 3.998 0 0 0-2.829 1.172L22.659 38.419a4 4 0 0 0-1.172 2.828v47.702a4 4 0 0 0 4 4H47.57c2.208 0 4-1.793 4-4 0-2.208-1.792-4-4-4H29.487V46.906zM86.818 44.934c-4.037-.031-12.146.065-13.709 12.726 0 0 4.327 1.166 9.818-2.21 3.271-2.011 4.579-7.112 3.891-10.516z" style="fill:#ffa400"/><path d="M73.596 62.915a.532.532 0 0 1 .069-.004c2.141 0 2.834-1.059 3.968-1.711 2.295-1.32 2.746-2.276 8.199-2.046 5.453.229 11.205 4.275 11.168 16.049-.023 7.15-3.771 15.069-10.811 19.383-2.311 1.417-3.932 1.729-6.025 1.729-3.91 0-3.605-1.929-5.468-2.232-.551-.09-1.031-.157-1.031-.157l-.069-.599-.07.599s-.48.067-1.031.157c-1.863.303-1.558 2.232-5.467 2.232-2.094 0-3.714-.312-6.026-1.729-7.04-4.314-10.788-12.233-10.811-19.383-.037-11.774 5.715-15.82 11.168-16.049 5.453-.23 5.904.726 8.199 2.046 1.134.652 1.828 1.711 3.968 1.711.023 0 .047.001.07.004z" style="fill:#ffa400"/></svg>